<?xml version="1.0" encoding="utf-8"?>
<!-- Generator: Adobe Illustrator 18.0.0, SVG Export Plug-In . SVG Version: 6.00 Build 0)  -->
<!DOCTYPE svg PUBLIC "-//W3C//DTD SVG 1.1//EN" "http://www.w3.org/Graphics/SVG/1.1/DTD/svg11.dtd">
<svg version="1.1" id="Layer_1" xmlns="http://www.w3.org/2000/svg" xmlns:xlink="http://www.w3.org/1999/xlink" x="0px" y="0px"
	 viewBox="0 0 203 233.4" enable-background="new 0 0 203 233.4" xml:space="preserve">
<g>
	<g>
		<linearGradient id="SVGID_1_" gradientUnits="userSpaceOnUse" x1="156.033" y1="158.8118" x2="5.912" y2="60.3519">
			<stop  offset="0" style="stop-color:#E5E2DF"/>
			<stop  offset="0" style="stop-color:#DED9D6"/>
			<stop  offset="6.299578e-002" style="stop-color:#CFCAC9"/>
			<stop  offset="0.1833" style="stop-color:#A8A4A7"/>
			<stop  offset="0.264" style="stop-color:#8B878D"/>
			<stop  offset="0.5225" style="stop-color:#F3F4F4"/>
			<stop  offset="0.5842" style="stop-color:#E5E5E6"/>
			<stop  offset="0.7027" style="stop-color:#C0BEC0"/>
			<stop  offset="0.8647" style="stop-color:#858085"/>
			<stop  offset="0.8764" style="stop-color:#807B80"/>
			<stop  offset="1" style="stop-color:#D1D3D4"/>
			<stop  offset="1" style="stop-color:#A7A9AC"/>
		</linearGradient>
		<path fill="url(#SVGID_1_)" d="M150.1,103.6c-1.8-4.4-4.2-8.6-7-12.3l0,0h0c-8.2-10.7-20.5-18.2-34.5-20.1
			c-2.3-0.3-4.7-0.5-7.1-0.5c-2.4,0-4.8,0.2-7.1,0.5C80.9,73,69,80,60.8,90.2h0l0,0c-3,3.7-5.5,7.7-7.3,12.1
			c-2.8,6.4-4.3,13.4-4.3,20.7c0,6.9,1.3,13.4,3.7,19.5c1.8,4.4,4.1,8.6,7,12.3c8.2,10.7,20.5,18.2,34.5,20.1
			c2.3,0.3,4.7,0.5,7.1,0.5c2.4,0,4.8-0.2,7.1-0.5c13.5-1.9,25.5-8.9,33.6-19c3-3.7,5.5-7.7,7.3-12.1c2.8-6.4,4.3-13.4,4.3-20.7
			C153.8,116.2,152.5,109.6,150.1,103.6z M141.1,92.4l-11,6.3h0c-5.4-6.4-12.9-10.9-21.5-12.5V73.5
			C121.7,75.3,133.3,82.4,141.1,92.4z M94.4,157.6c-7.7-1.6-14.5-5.6-19.4-11.3c-3.1-3.5-5.5-7.7-7-12.3c-1.1-3.4-1.7-7.1-1.7-10.9
			c0-4.1,0.7-8.1,2-11.8v0c1-2.8,2.4-5.5,4-7.9c0.7-1,1.4-1.9,2.1-2.8c0.4-0.5,0.8-0.9,1.2-1.3C80.5,93.8,87,90,94.4,88.5
			c0.6-0.1,1.1-0.2,1.7-0.3c1.2-0.2,2.3-0.3,3.5-0.4c0.6,0,1.2,0,1.8,0s1.2,0,1.8,0c1.2,0.1,2.4,0.2,3.5,0.4
			c0.6,0.1,1.2,0.2,1.7,0.3c7.7,1.6,14.5,5.7,19.4,11.3c1.6,1.8,2.9,3.7,4.1,5.8c1.2,2.1,2.1,4.2,2.9,6.5c1.1,3.4,1.7,7.1,1.7,10.9
			c0,4.1-0.7,8.1-2,11.8c-1.6,4.5-4.1,8.7-7.3,12.1c-4.9,5.3-11.4,9.1-18.8,10.6c-2.3,0.5-4.7,0.7-7.1,0.7
			C99.1,158.3,96.7,158,94.4,157.6z M94.4,73.5v12.7C86.2,87.7,79,92,73.6,97.9h0l-10.9-6.6C70.5,81.9,81.7,75.3,94.4,73.5z
			 M51.4,123c0-6.9,1.4-13.5,4-19.6l0,0l10.9,6.6c-1.5,4-2.3,8.4-2.3,13c0,4.2,0.7,8.3,2,12l-11,6.3C52.7,135.7,51.4,129.5,51.4,123
			z M61.9,153.7l11-6.3c5.4,6.4,12.9,10.9,21.4,12.5v12.7C81.2,170.7,69.7,163.7,61.9,153.7z M108.6,172.6v-12.7
			c8.2-1.6,15.4-5.8,20.8-11.8l10.9,6.6C132.5,164.2,121.3,170.8,108.6,172.6z M147.6,142.6l-10.9-6.6v0c1.5-4,2.3-8.4,2.3-13
			c0-4.2-0.7-8.3-2-12.1l0,0l0,0l11-6.3l0,0c2.2,5.7,3.5,11.9,3.5,18.3C151.5,130,150.1,136.6,147.6,142.6z"/>
		<linearGradient id="SVGID_2_" gradientUnits="userSpaceOnUse" x1="32.7369" y1="6.1831" x2="218.3828" y2="132.7598">
			<stop  offset="5.618000e-003" style="stop-color:#FBC926"/>
			<stop  offset="0.2528" style="stop-color:#FFFBCC"/>
			<stop  offset="0.3045" style="stop-color:#F8F0BB"/>
			<stop  offset="0.4072" style="stop-color:#E7D28E"/>
			<stop  offset="0.55" style="stop-color:#CCA246"/>
			<stop  offset="0.5955" style="stop-color:#C3922E"/>
			<stop  offset="0.8708" style="stop-color:#EED688"/>
			<stop  offset="1" style="stop-color:#FFFBCC"/>
		</linearGradient>
		<path fill="url(#SVGID_2_)" d="M132,47.4c-0.5-0.6-1.3-0.9-2.1-0.9c-1.6,0-3,1.3-3,3c0,1.3,0.8,2.4,2,2.8c0,0,0,0,0,0
			c-1.8,2.8-4,5-7.8,3.7c-4-1.4-3.7-5.3-3.1-7.5c0,0,0,0,0,0c0.3,0.1,0.5,0.1,0.8,0.1c1.6,0,3-1.3,3-3c0-1.6-1.3-3-3-3
			c-1.6,0-3,1.3-3,3c0,1.2,0.7,2.2,1.7,2.7c0,0,0,0,0,0c-1.4,1.7-4.5,4.5-8.7,3.8c-3.5-0.6-4.9-3.9-5.4-7h1.7c2,0,3.6-1.6,3.6-3.6
			c0-2-1.6-3.6-3.6-3.6h-2c0,0,0,0,0,0c-0.1-2.6-0.3-5.8-1.6-7.6c-0.8,1.1-1.2,2.7-1.4,4.4c-0.1,1.1-0.2,2.1-0.2,3.1c0,0,0,0,0,0
			l-2,0c-2,0-3.6,1.6-3.6,3.6c0,2,1.6,3.6,3.6,3.6h1.7c-0.5,3.1-1.8,6.4-5.4,7C90,52.8,87,50,85.6,48.3c0,0,0,0,0,0
			c1-0.5,1.7-1.5,1.7-2.7c0-1.6-1.3-3-3-3c-1.6,0-3,1.3-3,3c0,1.6,1.3,3,3,3c0.3,0,0.6-0.1,0.8-0.1c0,0,0,0,0,0
			c0.5,2.1,0.8,6.1-3.1,7.5c-3.8,1.3-5.9-0.9-7.8-3.7c0,0,0,0,0,0c0,0,0,0,0,0c1.1-0.4,2-1.5,2-2.8c0-1.6-1.3-3-3-3
			c-0.8,0-1.6,0.3-2.1,0.9l0,0c-2.5-3.1-5.1-2.4-5.1-2.4l12.3,24.5c6.3-2.5,14.6-4.1,23.7-4.1c8.7,0,16.7,1.4,22.9,3.8L137,45
			C137,45,134.5,44.3,132,47.4z"/>
		<g>
			<linearGradient id="SVGID_3_" gradientUnits="userSpaceOnUse" x1="0.3395" y1="53.6993" x2="185.9853" y2="180.2761">
				<stop  offset="5.618000e-003" style="stop-color:#FBC926"/>
				<stop  offset="0.2528" style="stop-color:#FFFBCC"/>
				<stop  offset="0.3045" style="stop-color:#F8F0BB"/>
				<stop  offset="0.4072" style="stop-color:#E7D28E"/>
				<stop  offset="0.55" style="stop-color:#CCA246"/>
				<stop  offset="0.5955" style="stop-color:#C3922E"/>
				<stop  offset="0.8708" style="stop-color:#EED688"/>
				<stop  offset="1" style="stop-color:#FFFBCC"/>
			</linearGradient>
			<path fill="url(#SVGID_3_)" d="M101.5,130.6c0,0,3.4,4.9,9.3,4.5c7.2-0.5,11.5-9.2,4.8-16.1c-5.5-5.7-11.5-9.7-14.1-16.6l0,0
				c-2.6,6.9-8.7,10.9-14.1,16.6c-6.7,6.9-2.4,15.6,4.8,16.1C98.1,135.5,101.5,130.6,101.5,130.6L101.5,130.6z"/>
			<linearGradient id="SVGID_4_" gradientUnits="userSpaceOnUse" x1="-6.0631" y1="63.0898" x2="179.5827" y2="189.6665">
				<stop  offset="5.618000e-003" style="stop-color:#FBC926"/>
				<stop  offset="0.2528" style="stop-color:#FFFBCC"/>
				<stop  offset="0.3045" style="stop-color:#F8F0BB"/>
				<stop  offset="0.4072" style="stop-color:#E7D28E"/>
				<stop  offset="0.55" style="stop-color:#CCA246"/>
				<stop  offset="0.5955" style="stop-color:#C3922E"/>
				<stop  offset="0.8708" style="stop-color:#EED688"/>
				<stop  offset="1" style="stop-color:#FFFBCC"/>
			</linearGradient>
			<path fill="url(#SVGID_4_)" d="M105.7,139.9h-0.1c-1.2-0.4-2.6-0.7-4-0.7c-1.5,0-2.9,0.3-4,0.7h-0.1c3.5-2.3,3.5-9.5,3.5-9.5h1.3
				C102.1,130.5,102.1,137.6,105.7,139.9z"/>
		</g>
	</g>
	<linearGradient id="SVGID_5_" gradientUnits="userSpaceOnUse" x1="101.4832" y1="-13.3212" x2="101.4832" y2="157.8562">
		<stop  offset="5.618000e-003" style="stop-color:#FBC926"/>
		<stop  offset="0.2528" style="stop-color:#FFFBCC"/>
		<stop  offset="0.3045" style="stop-color:#F8F0BB"/>
		<stop  offset="0.4072" style="stop-color:#E7D28E"/>
		<stop  offset="0.55" style="stop-color:#CCA246"/>
		<stop  offset="0.5955" style="stop-color:#C3922E"/>
		<stop  offset="0.8708" style="stop-color:#EED688"/>
		<stop  offset="1" style="stop-color:#FFFBCC"/>
	</linearGradient>
	<path fill="url(#SVGID_5_)" d="M201.9,89.9c0-18.8,0-37.7,0.1-56.5c0-2-0.6-2.8-2.6-3.4c-31.9-9.5-63.8-19.1-95.7-28.6
		c-1.4-0.4-3.1-0.4-4.5,0C67.3,11,35.4,20.6,3.5,30.1C1.7,30.6,1,31.4,1,33.3c0.1,36.2,0,72.3,0.1,108.5c0,5.7,1,11.3,3.2,16.7
		c5.4,13.1,14.5,23.5,25,32.8c20.7,18.2,44.2,31.6,70.2,40.7c1.3,0.4,2.9,0.4,4.2,0c16.9-5.7,32.7-13.7,47.6-23.5
		c15.2-10,29.2-21.3,39.9-36.3c6.9-9.7,11.1-20.2,10.9-32.5C201.7,123.1,201.9,106.5,201.9,89.9z M99.6,222.4
		c-23.8-8.4-45.4-20.6-64.4-37.3c-9.6-8.5-17.9-18-22.9-30.1c-2-4.9-2.9-10-2.9-15.3c0-33.2,0-66.3,0-99.5c0-1.8,0.6-2.5,2.2-3
		c29.3-8.7,58.5-17.5,87.7-26.2c1.3-0.4,2.9-0.4,4.1,0c29.3,8.7,58.5,17.5,87.7,26.2c1.7,0.5,2.4,1.2,2.4,3.1
		c-0.1,17.3-0.1,34.5-0.1,51.8c0,15.2-0.2,30.4,0.1,45.6c0.2,11.2-3.6,20.9-10,29.8c-9.8,13.7-22.6,24.1-36.6,33.3
		c-13.6,9-28.1,16.3-43.6,21.5C102.3,222.7,100.7,222.8,99.6,222.4z"/>
	<linearGradient id="SVGID_6_" gradientUnits="userSpaceOnUse" x1="4.8934" y1="116.7216" x2="198.0729" y2="116.7216">
		<stop  offset="5.618000e-003" style="stop-color:#FBC926"/>
		<stop  offset="0.2528" style="stop-color:#FFFBCC"/>
		<stop  offset="0.3045" style="stop-color:#F8F0BB"/>
		<stop  offset="0.4072" style="stop-color:#E7D28E"/>
		<stop  offset="0.55" style="stop-color:#CCA246"/>
		<stop  offset="0.5955" style="stop-color:#C3922E"/>
		<stop  offset="0.8708" style="stop-color:#EED688"/>
		<stop  offset="1" style="stop-color:#FFFBCC"/>
	</linearGradient>
	<path fill="url(#SVGID_6_)" d="M198,91c0-18.1,0-36.2,0.1-54.3c0-2-0.6-2.7-2.5-3.3c-30.7-9.1-61.3-18.4-92-27.5
		c-1.3-0.4-3-0.4-4.3,0c-30.7,9.1-61.3,18.3-92,27.5c-1.7,0.5-2.4,1.2-2.4,3.1C5,71.3,4.9,106.1,5,140.8c0,5.5,0.9,10.9,3.1,16
		c5.2,12.6,14,22.6,24,31.5c19.9,17.5,42.5,30.4,67.5,39.1c1.2,0.4,2.8,0.4,4,0c16.2-5.5,31.4-13.2,45.7-22.6
		c14.6-9.6,28.1-20.5,38.4-34.9c6.7-9.3,10.7-19.4,10.5-31.2C197.8,122.9,198,106.9,198,91z M183.6,167.6
		c-9.8,13.7-22.6,24.1-36.6,33.3c-13.6,9-28.1,16.3-43.6,21.5c-1.2,0.4-2.7,0.4-3.9,0c-23.8-8.4-45.4-20.6-64.4-37.3
		c-9.6-8.5-17.9-18-22.9-30.1c-2-4.9-2.9-10-2.9-15.3c0-33.2,0-66.3,0-99.5c0-1.8,0.6-2.5,2.2-3c29.3-8.7,58.5-17.5,87.7-26.2
		c1.3-0.4,2.9-0.4,4.1,0c29.3,8.7,58.5,17.5,87.7,26.2c1.7,0.5,2.4,1.2,2.4,3.1c-0.1,17.3-0.1,34.5-0.1,51.8
		c0,15.2-0.2,30.4,0.1,45.6C193.8,149,190,158.7,183.6,167.6z"/>
</g>
</svg>
