<svg xmlns="http://www.w3.org/2000/svg" viewBox="0 0 203 233.4"><linearGradient id="a" gradientUnits="userSpaceOnUse" x1="11.5" y1="29.2" x2="164.1" y2="138.9"><stop offset="0" stop-color="#e5e2df"/><stop offset="0" stop-color="#ded9d6"/><stop offset=".1" stop-color="#cfcac9"/><stop offset=".2" stop-color="#a8a4a7"/><stop offset=".3" stop-color="#8b878d"/><stop offset=".5" stop-color="#f3f4f4"/><stop offset=".6" stop-color="#e5e5e6"/><stop offset=".7" stop-color="#c0bec0"/><stop offset=".9" stop-color="#858085"/><stop offset=".9" stop-color="#807b80"/><stop offset="1" stop-color="#d1d3d4"/><stop offset="1" stop-color="#a7a9ac"/></linearGradient><path fill="url(#a)" d="M160.8 71.8a28 28 0 0 0-55.5-4.6c-1.4-.2-2.9-.2-4.4-.2a47.3 47.3 0 1 0 44 30 28 28 0 0 0 15.9-25.2zm-22.3 42.5a37.7 37.7 0 0 1-75.2 0 37.7 37.7 0 0 1 69.1-20.4l1.8 3 1.4 2.9c1.8 4.4 2.9 9.3 2.9 14.5zm-2.9-32.1c3.4-.4 6.3-2.6 6.3-6.3 0-5.1-4.5-5.8-8.7-6.3-2.4-.3-4.7-.6-4.7-2.5 0-2 2.2-2.7 4.6-2.7 2 0 4.1 1 4.9 2.2l3.1-1.4c-1.3-2.6-3.5-3.6-6-4v-2.5h-3.7v2.5c-3.3.4-6.7 2.1-6.7 5.9 0 4.8 4 5.5 8.1 6 2.7.3 5.1 1 5.1 2.9 0 2.2-2.4 3.1-5 3.1h-.6a47.3 47.3 0 0 0-21.2-10.9 22 22 0 1 1 31.3 23.6 44.8 44.8 0 0 0-6.8-9.6z"/><linearGradient id="b" gradientUnits="userSpaceOnUse" x1="1.9" y1="42.6" x2="154.4" y2="152.3"><stop offset="0" stop-color="#e5e2df"/><stop offset="0" stop-color="#ded9d6"/><stop offset=".1" stop-color="#cfcac9"/><stop offset=".2" stop-color="#a8a4a7"/><stop offset=".3" stop-color="#8b878d"/><stop offset=".5" stop-color="#f3f4f4"/><stop offset=".6" stop-color="#e5e5e6"/><stop offset=".7" stop-color="#c0bec0"/><stop offset=".9" stop-color="#858085"/><stop offset=".9" stop-color="#807b80"/><stop offset="1" stop-color="#d1d3d4"/><stop offset="1" stop-color="#a7a9ac"/></linearGradient><path fill="url(#b)" d="M101.5 110.4c-4.1-.5-8-1.1-8-4.3 0-3.4 3.7-4.6 7.8-4.6 3.4 0 7 1.6 8.3 3.7l5.3-2.4c-2.2-4.5-6-6.1-10.2-6.7v-4.3h-6.2V96c-5.7.7-11.4 3.6-11.4 10 0 8.1 6.8 9.3 13.9 10.1 4.6.5 8.6 1.7 8.6 5 0 3.8-4.1 5.3-8.5 5.3-4.1 0-8.4-2-9.8-5.1l-5.8 2.4c2.3 5.4 7.4 7.9 12.9 8.4v4.6h6.2v-4.9c6.1-.4 11.6-4.2 11.6-10.8.1-8.5-7.6-9.7-14.7-10.6z"/><linearGradient id="c" gradientUnits="userSpaceOnUse" x1="101.5" y1="-13.3" x2="101.5" y2="157.9"><stop offset="0" stop-color="#fbc926"/><stop offset=".3" stop-color="#fffbcc"/><stop offset=".3" stop-color="#f8f0bb"/><stop offset=".4" stop-color="#e7d28e"/><stop offset=".6" stop-color="#cca246"/><stop offset=".6" stop-color="#c3922e"/><stop offset=".9" stop-color="#eed688"/><stop offset="1" stop-color="#fffbcc"/></linearGradient><path fill="url(#c)" d="M201.9 89.9l.1-56.5c0-2-.6-2.8-2.6-3.4L103.7 1.4a8.6 8.6 0 0 0-4.5 0L3.5 30.1c-1.8.5-2.5 1.3-2.5 3.2l.1 108.5c0 5.7 1 11.3 3.2 16.7a90.3 90.3 0 0 0 25 32.8A210.4 210.4 0 0 0 99.5 232c1.3.4 2.9.4 4.2 0a206.8 206.8 0 0 0 47.6-23.5c15.2-10 29.2-21.3 39.9-36.3a53.2 53.2 0 0 0 10.9-32.5c-.4-16.6-.2-33.2-.2-49.8zM99.6 222.4a194.4 194.4 0 0 1-64.4-37.3A82.7 82.7 0 0 1 12.3 155a40 40 0 0 1-2.9-15.3V40.2c0-1.8.6-2.5 2.2-3L99.3 11c1.3-.4 2.9-.4 4.1 0l87.7 26.2c1.7.5 2.4 1.2 2.4 3.1l-.1 51.8c0 15.2-.2 30.4.1 45.6a48.4 48.4 0 0 1-10 29.8 133.8 133.8 0 0 1-36.6 33.3c-13.6 9-28.1 16.3-43.6 21.5-1 .4-2.6.5-3.7.1z"/><linearGradient id="d" gradientUnits="userSpaceOnUse" x1="4.9" y1="116.7" x2="198.1" y2="116.7"><stop offset="0" stop-color="#fbc926"/><stop offset=".3" stop-color="#fffbcc"/><stop offset=".3" stop-color="#f8f0bb"/><stop offset=".4" stop-color="#e7d28e"/><stop offset=".6" stop-color="#cca246"/><stop offset=".6" stop-color="#c3922e"/><stop offset=".9" stop-color="#eed688"/><stop offset="1" stop-color="#fffbcc"/></linearGradient><path fill="url(#d)" d="M198 91l.1-54.3c0-2-.6-2.7-2.5-3.3l-92-27.5c-1.3-.4-3-.4-4.3 0l-92 27.5c-1.7.5-2.4 1.2-2.4 3.1L5 140.8a40 40 0 0 0 3.1 16 87.4 87.4 0 0 0 24 31.5 201.3 201.3 0 0 0 67.5 39.1c1.2.4 2.8.4 4 0a200.5 200.5 0 0 0 45.7-22.6 140.5 140.5 0 0 0 38.4-34.9 50.6 50.6 0 0 0 10.5-31.2c-.4-15.8-.2-31.8-.2-47.7zm-14.4 76.6a133.8 133.8 0 0 1-36.6 33.3c-13.6 9-28.1 16.3-43.6 21.5-1.2.4-2.7.4-3.9 0a194.4 194.4 0 0 1-64.4-37.3A82.7 82.7 0 0 1 12.2 155a40 40 0 0 1-2.9-15.3V40.2c0-1.8.6-2.5 2.2-3L99.2 11c1.3-.4 2.9-.4 4.1 0L191 37.2c1.7.5 2.4 1.2 2.4 3.1l-.1 51.8c0 15.2-.2 30.4.1 45.6.4 11.3-3.4 21-9.8 29.9z"/></svg>