<svg xmlns="http://www.w3.org/2000/svg" viewBox="0 0 203 233.4"><linearGradient id="a" gradientUnits="userSpaceOnUse" x1="101.5" y1="-13.3" x2="101.5" y2="157.9"><stop offset="0" stop-color="#fbc926"/><stop offset=".3" stop-color="#fffbcc"/><stop offset=".3" stop-color="#f8f0bb"/><stop offset=".4" stop-color="#e7d28e"/><stop offset=".6" stop-color="#cca246"/><stop offset=".6" stop-color="#c3922e"/><stop offset=".9" stop-color="#eed688"/><stop offset="1" stop-color="#fffbcc"/></linearGradient><path fill="url(#a)" d="M201.9 89.9l.1-56.5c0-2-.6-2.8-2.6-3.4L103.7 1.4a8.6 8.6 0 0 0-4.5 0L3.5 30.1c-1.8.5-2.5 1.3-2.5 3.2l.1 108.5c0 5.7 1 11.3 3.2 16.7a90.3 90.3 0 0 0 25 32.8A210.4 210.4 0 0 0 99.5 232c1.3.4 2.9.4 4.2 0a206.8 206.8 0 0 0 47.6-23.5c15.2-10 29.2-21.3 39.9-36.3a53.2 53.2 0 0 0 10.9-32.5c-.4-16.6-.2-33.2-.2-49.8zM99.6 222.4a194.4 194.4 0 0 1-64.4-37.3A82.7 82.7 0 0 1 12.3 155a40 40 0 0 1-2.9-15.3V40.2c0-1.8.6-2.5 2.2-3L99.3 11c1.3-.4 2.9-.4 4.1 0l87.7 26.2c1.7.5 2.4 1.2 2.4 3.1l-.1 51.8c0 15.2-.2 30.4.1 45.6a48.4 48.4 0 0 1-10 29.8 133.8 133.8 0 0 1-36.6 33.3c-13.6 9-28.1 16.3-43.6 21.5-1 .4-2.6.5-3.7.1z"/><linearGradient id="b" gradientUnits="userSpaceOnUse" x1="4.9" y1="116.7" x2="198.1" y2="116.7"><stop offset="0" stop-color="#fbc926"/><stop offset=".3" stop-color="#fffbcc"/><stop offset=".3" stop-color="#f8f0bb"/><stop offset=".4" stop-color="#e7d28e"/><stop offset=".6" stop-color="#cca246"/><stop offset=".6" stop-color="#c3922e"/><stop offset=".9" stop-color="#eed688"/><stop offset="1" stop-color="#fffbcc"/></linearGradient><path fill="url(#b)" d="M198 91l.1-54.3c0-2-.6-2.7-2.5-3.3l-92-27.5c-1.3-.4-3-.4-4.3 0l-92 27.5c-1.7.5-2.4 1.2-2.4 3.1L5 140.8a40 40 0 0 0 3.1 16 87.4 87.4 0 0 0 24 31.5 201.3 201.3 0 0 0 67.5 39.1c1.2.4 2.8.4 4 0a200.5 200.5 0 0 0 45.7-22.6 140.5 140.5 0 0 0 38.4-34.9 50.6 50.6 0 0 0 10.5-31.2c-.4-15.8-.2-31.8-.2-47.7zm-14.4 76.6a133.8 133.8 0 0 1-36.6 33.3c-13.6 9-28.1 16.3-43.6 21.5-1.2.4-2.7.4-3.9 0a194.4 194.4 0 0 1-64.4-37.3A82.7 82.7 0 0 1 12.2 155a40 40 0 0 1-2.9-15.3V40.2c0-1.8.6-2.5 2.2-3L99.2 11c1.3-.4 2.9-.4 4.1 0L191 37.2c1.7.5 2.4 1.2 2.4 3.1l-.1 51.8c0 15.2-.2 30.4.1 45.6.4 11.3-3.4 21-9.8 29.9z"/><linearGradient id="c" gradientUnits="userSpaceOnUse" x1="3822.9" y1="-1637.4" x2="3966" y2="-1522.5" gradientTransform="rotate(-90 2844.2 1160.9)"><stop offset="0" stop-color="#e5e2df"/><stop offset="0" stop-color="#ded9d6"/><stop offset=".1" stop-color="#cfcac9"/><stop offset=".2" stop-color="#a8a4a7"/><stop offset=".3" stop-color="#8b878d"/><stop offset=".5" stop-color="#f3f4f4"/><stop offset=".6" stop-color="#e5e5e6"/><stop offset=".7" stop-color="#c0bec0"/><stop offset=".9" stop-color="#858085"/><stop offset=".9" stop-color="#807b80"/><stop offset="1" stop-color="#d1d3d4"/><stop offset="1" stop-color="#a7a9ac"/></linearGradient><path fill="url(#c)" d="M65.1 157l36.4-23.4v-19.4l-36.4 23.4z"/><linearGradient id="d" gradientUnits="userSpaceOnUse" x1="3805.2" y1="-1615.3" x2="3948.2" y2="-1500.4" gradientTransform="rotate(-90 2844.2 1160.9)"><stop offset="0" stop-color="#e5e2df"/><stop offset="0" stop-color="#ded9d6"/><stop offset=".1" stop-color="#cfcac9"/><stop offset=".2" stop-color="#a8a4a7"/><stop offset=".3" stop-color="#8b878d"/><stop offset=".5" stop-color="#f3f4f4"/><stop offset=".6" stop-color="#e5e5e6"/><stop offset=".7" stop-color="#c0bec0"/><stop offset=".9" stop-color="#858085"/><stop offset=".9" stop-color="#807b80"/><stop offset="1" stop-color="#d1d3d4"/><stop offset="1" stop-color="#a7a9ac"/></linearGradient><path fill="url(#d)" d="M137.9 157v-19.4l-36.4-23.4v19.4z"/><linearGradient id="e" gradientUnits="userSpaceOnUse" x1="3817.1" y1="-1630.2" x2="3960.2" y2="-1515.3" gradientTransform="rotate(-90 2844.2 1160.9)"><stop offset="0" stop-color="#e5e2df"/><stop offset="0" stop-color="#ded9d6"/><stop offset=".1" stop-color="#cfcac9"/><stop offset=".2" stop-color="#a8a4a7"/><stop offset=".3" stop-color="#8b878d"/><stop offset=".5" stop-color="#f3f4f4"/><stop offset=".6" stop-color="#e5e5e6"/><stop offset=".7" stop-color="#c0bec0"/><stop offset=".9" stop-color="#858085"/><stop offset=".9" stop-color="#807b80"/><stop offset="1" stop-color="#d1d3d4"/><stop offset="1" stop-color="#a7a9ac"/></linearGradient><path fill="url(#e)" d="M137.9 126.5v-19.4l-36.4-23.4v19.4z"/><linearGradient id="f" gradientUnits="userSpaceOnUse" x1="3834.9" y1="-1652.3" x2="3978" y2="-1537.4" gradientTransform="rotate(-90 2844.2 1160.9)"><stop offset="0" stop-color="#e5e2df"/><stop offset="0" stop-color="#ded9d6"/><stop offset=".1" stop-color="#cfcac9"/><stop offset=".2" stop-color="#a8a4a7"/><stop offset=".3" stop-color="#8b878d"/><stop offset=".5" stop-color="#f3f4f4"/><stop offset=".6" stop-color="#e5e5e6"/><stop offset=".7" stop-color="#c0bec0"/><stop offset=".9" stop-color="#858085"/><stop offset=".9" stop-color="#807b80"/><stop offset="1" stop-color="#d1d3d4"/><stop offset="1" stop-color="#a7a9ac"/></linearGradient><path fill="url(#f)" d="M65.1 126.5l36.4-23.4V83.7l-36.4 23.4z"/><linearGradient id="g" gradientUnits="userSpaceOnUse" x1="3829.1" y1="-1645.1" x2="3972.2" y2="-1530.2" gradientTransform="rotate(-90 2844.2 1160.9)"><stop offset="0" stop-color="#e5e2df"/><stop offset="0" stop-color="#ded9d6"/><stop offset=".1" stop-color="#cfcac9"/><stop offset=".2" stop-color="#a8a4a7"/><stop offset=".3" stop-color="#8b878d"/><stop offset=".5" stop-color="#f3f4f4"/><stop offset=".6" stop-color="#e5e5e6"/><stop offset=".7" stop-color="#c0bec0"/><stop offset=".9" stop-color="#858085"/><stop offset=".9" stop-color="#807b80"/><stop offset="1" stop-color="#d1d3d4"/><stop offset="1" stop-color="#a7a9ac"/></linearGradient><path fill="url(#g)" d="M101.5 72.6L137.9 96V76.5l-36.4-23.3z"/><linearGradient id="h" gradientUnits="userSpaceOnUse" x1="3846.9" y1="-1667.2" x2="3989.9" y2="-1552.3" gradientTransform="rotate(-90 2844.2 1160.9)"><stop offset="0" stop-color="#e5e2df"/><stop offset="0" stop-color="#ded9d6"/><stop offset=".1" stop-color="#cfcac9"/><stop offset=".2" stop-color="#a8a4a7"/><stop offset=".3" stop-color="#8b878d"/><stop offset=".5" stop-color="#f3f4f4"/><stop offset=".6" stop-color="#e5e5e6"/><stop offset=".7" stop-color="#c0bec0"/><stop offset=".9" stop-color="#858085"/><stop offset=".9" stop-color="#807b80"/><stop offset="1" stop-color="#d1d3d4"/><stop offset="1" stop-color="#a7a9ac"/></linearGradient><path fill="url(#h)" d="M65.1 76.5V96l36.4-23.4V53.2z"/></svg>