<?xml version="1.0" encoding="utf-8"?>
<!-- Generator: Adobe Illustrator 18.0.0, SVG Export Plug-In . SVG Version: 6.00 Build 0)  -->
<!DOCTYPE svg PUBLIC "-//W3C//DTD SVG 1.1//EN" "http://www.w3.org/Graphics/SVG/1.1/DTD/svg11.dtd">
<svg version="1.1" id="Layer_1" xmlns="http://www.w3.org/2000/svg" xmlns:xlink="http://www.w3.org/1999/xlink" x="0px" y="0px"
	 viewBox="0 0 203 233.4" enable-background="new 0 0 203 233.4" xml:space="preserve">
<g>
	<g>
		<g>
			<linearGradient id="SVGID_1_" gradientUnits="userSpaceOnUse" x1="-2.9008" y1="47.7496" x2="171.2225" y2="162.0729">
				<stop  offset="0" style="stop-color:#E5E2DF"/>
				<stop  offset="0" style="stop-color:#DED9D6"/>
				<stop  offset="6.299578e-002" style="stop-color:#CFCAC9"/>
				<stop  offset="0.1833" style="stop-color:#A8A4A7"/>
				<stop  offset="0.264" style="stop-color:#8B878D"/>
				<stop  offset="0.5225" style="stop-color:#F3F4F4"/>
				<stop  offset="0.5842" style="stop-color:#E5E5E6"/>
				<stop  offset="0.7027" style="stop-color:#C0BEC0"/>
				<stop  offset="0.8647" style="stop-color:#858085"/>
				<stop  offset="0.8764" style="stop-color:#807B80"/>
				<stop  offset="1" style="stop-color:#D1D3D4"/>
				<stop  offset="1" style="stop-color:#A7A9AC"/>
			</linearGradient>
			<path fill="url(#SVGID_1_)" d="M131.9,124.9H74.5L51.3,67.3H36.5c-2,0-3.5-1.6-3.5-3.5s1.6-3.5,3.5-3.5h19.7l23.1,57.6h52.6
				c2,0,3.5,1.6,3.5,3.5S133.8,124.9,131.9,124.9z"/>
		</g>
		<g>
			<linearGradient id="SVGID_2_" gradientUnits="userSpaceOnUse" x1="15.2814" y1="20.0568" x2="189.4046" y2="134.3801">
				<stop  offset="0" style="stop-color:#E5E2DF"/>
				<stop  offset="0" style="stop-color:#DED9D6"/>
				<stop  offset="6.299578e-002" style="stop-color:#CFCAC9"/>
				<stop  offset="0.1833" style="stop-color:#A8A4A7"/>
				<stop  offset="0.264" style="stop-color:#8B878D"/>
				<stop  offset="0.5225" style="stop-color:#F3F4F4"/>
				<stop  offset="0.5842" style="stop-color:#E5E5E6"/>
				<stop  offset="0.7027" style="stop-color:#C0BEC0"/>
				<stop  offset="0.8647" style="stop-color:#858085"/>
				<stop  offset="0.8764" style="stop-color:#807B80"/>
				<stop  offset="1" style="stop-color:#D1D3D4"/>
				<stop  offset="1" style="stop-color:#A7A9AC"/>
			</linearGradient>
			<path fill="url(#SVGID_2_)" d="M149.9,82.6h-89c-1.8,0-3.3-1.5-3.3-3.3s1.5-3.3,3.3-3.3h89c1.8,0,3.3,1.5,3.3,3.3
				S151.8,82.6,149.9,82.6z"/>
		</g>
		<g>
			<linearGradient id="SVGID_3_" gradientUnits="userSpaceOnUse" x1="8.6021" y1="30.2299" x2="182.7253" y2="144.5532">
				<stop  offset="0" style="stop-color:#E5E2DF"/>
				<stop  offset="0" style="stop-color:#DED9D6"/>
				<stop  offset="6.299578e-002" style="stop-color:#CFCAC9"/>
				<stop  offset="0.1833" style="stop-color:#A8A4A7"/>
				<stop  offset="0.264" style="stop-color:#8B878D"/>
				<stop  offset="0.5225" style="stop-color:#F3F4F4"/>
				<stop  offset="0.5842" style="stop-color:#E5E5E6"/>
				<stop  offset="0.7027" style="stop-color:#C0BEC0"/>
				<stop  offset="0.8647" style="stop-color:#858085"/>
				<stop  offset="0.8764" style="stop-color:#807B80"/>
				<stop  offset="1" style="stop-color:#D1D3D4"/>
				<stop  offset="1" style="stop-color:#A7A9AC"/>
			</linearGradient>
			<path fill="url(#SVGID_3_)" d="M143.9,96.9H65.5c-2,0-3.5-1.6-3.5-3.5s1.6-3.5,3.5-3.5h78.4c2,0,3.5,1.6,3.5,3.5
				S145.9,96.9,143.9,96.9z"/>
		</g>
		<g>
			<linearGradient id="SVGID_4_" gradientUnits="userSpaceOnUse" x1="1.8503" y1="40.5134" x2="175.9735" y2="154.8367">
				<stop  offset="0" style="stop-color:#E5E2DF"/>
				<stop  offset="0" style="stop-color:#DED9D6"/>
				<stop  offset="6.299578e-002" style="stop-color:#CFCAC9"/>
				<stop  offset="0.1833" style="stop-color:#A8A4A7"/>
				<stop  offset="0.264" style="stop-color:#8B878D"/>
				<stop  offset="0.5225" style="stop-color:#F3F4F4"/>
				<stop  offset="0.5842" style="stop-color:#E5E5E6"/>
				<stop  offset="0.7027" style="stop-color:#C0BEC0"/>
				<stop  offset="0.8647" style="stop-color:#858085"/>
				<stop  offset="0.8764" style="stop-color:#807B80"/>
				<stop  offset="1" style="stop-color:#D1D3D4"/>
				<stop  offset="1" style="stop-color:#A7A9AC"/>
			</linearGradient>
			<path fill="url(#SVGID_4_)" d="M136.7,111.4H72.2c-2,0-3.5-1.6-3.5-3.5c0-2,1.6-3.5,3.5-3.5h64.5c2,0,3.5,1.6,3.5,3.5
				C140.3,109.9,138.7,111.4,136.7,111.4z"/>
		</g>
		<g>
			<linearGradient id="SVGID_5_" gradientUnits="userSpaceOnUse" x1="-24.8237" y1="81.1398" x2="149.2996" y2="195.4632">
				<stop  offset="0" style="stop-color:#E5E2DF"/>
				<stop  offset="0" style="stop-color:#DED9D6"/>
				<stop  offset="6.299578e-002" style="stop-color:#CFCAC9"/>
				<stop  offset="0.1833" style="stop-color:#A8A4A7"/>
				<stop  offset="0.264" style="stop-color:#8B878D"/>
				<stop  offset="0.5225" style="stop-color:#F3F4F4"/>
				<stop  offset="0.5842" style="stop-color:#E5E5E6"/>
				<stop  offset="0.7027" style="stop-color:#C0BEC0"/>
				<stop  offset="0.8647" style="stop-color:#858085"/>
				<stop  offset="0.8764" style="stop-color:#807B80"/>
				<stop  offset="1" style="stop-color:#D1D3D4"/>
				<stop  offset="1" style="stop-color:#A7A9AC"/>
			</linearGradient>
			<path fill="url(#SVGID_5_)" d="M74.3,158.9c-7,0-12.7-5.7-12.7-12.7c0-7,5.7-12.7,12.7-12.7S87,139.2,87,146.2
				C87,153.2,81.3,158.9,74.3,158.9z M74.3,140.6c-3.1,0-5.6,2.5-5.6,5.6c0,3.1,2.5,5.6,5.6,5.6c3.1,0,5.6-2.5,5.6-5.6
				C79.9,143.2,77.4,140.6,74.3,140.6z"/>
		</g>
		<g>
			<linearGradient id="SVGID_6_" gradientUnits="userSpaceOnUse" x1="-6.5778" y1="53.35" x2="167.5455" y2="167.6733">
				<stop  offset="0" style="stop-color:#E5E2DF"/>
				<stop  offset="0" style="stop-color:#DED9D6"/>
				<stop  offset="6.299578e-002" style="stop-color:#CFCAC9"/>
				<stop  offset="0.1833" style="stop-color:#A8A4A7"/>
				<stop  offset="0.264" style="stop-color:#8B878D"/>
				<stop  offset="0.5225" style="stop-color:#F3F4F4"/>
				<stop  offset="0.5842" style="stop-color:#E5E5E6"/>
				<stop  offset="0.7027" style="stop-color:#C0BEC0"/>
				<stop  offset="0.8647" style="stop-color:#858085"/>
				<stop  offset="0.8764" style="stop-color:#807B80"/>
				<stop  offset="1" style="stop-color:#D1D3D4"/>
				<stop  offset="1" style="stop-color:#A7A9AC"/>
			</linearGradient>
			<path fill="url(#SVGID_6_)" d="M134.9,158.9c-7,0-12.7-5.7-12.7-12.7c0-7,5.7-12.7,12.7-12.7c7,0,12.7,5.7,12.7,12.7
				C147.6,153.2,141.9,158.9,134.9,158.9z M134.9,140.6c-3.1,0-5.6,2.5-5.6,5.6c0,3.1,2.5,5.6,5.6,5.6c3.1,0,5.6-2.5,5.6-5.6
				C140.5,143.2,138,140.6,134.9,140.6z"/>
		</g>
	</g>
	<linearGradient id="SVGID_7_" gradientUnits="userSpaceOnUse" x1="101.4832" y1="-13.3212" x2="101.4832" y2="157.8562">
		<stop  offset="5.618000e-003" style="stop-color:#FBC926"/>
		<stop  offset="0.2528" style="stop-color:#FFFBCC"/>
		<stop  offset="0.3045" style="stop-color:#F8F0BB"/>
		<stop  offset="0.4072" style="stop-color:#E7D28E"/>
		<stop  offset="0.55" style="stop-color:#CCA246"/>
		<stop  offset="0.5955" style="stop-color:#C3922E"/>
		<stop  offset="0.8708" style="stop-color:#EED688"/>
		<stop  offset="1" style="stop-color:#FFFBCC"/>
	</linearGradient>
	<path fill="url(#SVGID_7_)" d="M201.9,89.9c0-18.8,0-37.7,0.1-56.5c0-2-0.6-2.8-2.6-3.4c-31.9-9.5-63.8-19.1-95.7-28.6
		c-1.4-0.4-3.1-0.4-4.5,0C67.3,11,35.4,20.6,3.5,30.1C1.7,30.6,1,31.4,1,33.3c0.1,36.2,0,72.3,0.1,108.5c0,5.7,1,11.3,3.2,16.7
		c5.4,13.1,14.5,23.5,25,32.8c20.7,18.2,44.2,31.6,70.2,40.7c1.3,0.4,2.9,0.4,4.2,0c16.9-5.7,32.7-13.7,47.6-23.5
		c15.2-10,29.2-21.3,39.9-36.3c6.9-9.7,11.1-20.2,10.9-32.5C201.7,123.1,201.9,106.5,201.9,89.9z M99.6,222.4
		c-23.8-8.4-45.4-20.6-64.4-37.3c-9.6-8.5-17.9-18-22.9-30.1c-2-4.9-2.9-10-2.9-15.3c0-33.2,0-66.3,0-99.5c0-1.8,0.6-2.5,2.2-3
		c29.3-8.7,58.5-17.5,87.7-26.2c1.3-0.4,2.9-0.4,4.1,0c29.3,8.7,58.5,17.5,87.7,26.2c1.7,0.5,2.4,1.2,2.4,3.1
		c-0.1,17.3-0.1,34.5-0.1,51.8c0,15.2-0.2,30.4,0.1,45.6c0.2,11.2-3.6,20.9-10,29.8c-9.8,13.7-22.6,24.1-36.6,33.3
		c-13.6,9-28.1,16.3-43.6,21.5C102.3,222.7,100.7,222.8,99.6,222.4z"/>
	<linearGradient id="SVGID_8_" gradientUnits="userSpaceOnUse" x1="4.8934" y1="116.7216" x2="198.0729" y2="116.7216">
		<stop  offset="5.618000e-003" style="stop-color:#FBC926"/>
		<stop  offset="0.2528" style="stop-color:#FFFBCC"/>
		<stop  offset="0.3045" style="stop-color:#F8F0BB"/>
		<stop  offset="0.4072" style="stop-color:#E7D28E"/>
		<stop  offset="0.55" style="stop-color:#CCA246"/>
		<stop  offset="0.5955" style="stop-color:#C3922E"/>
		<stop  offset="0.8708" style="stop-color:#EED688"/>
		<stop  offset="1" style="stop-color:#FFFBCC"/>
	</linearGradient>
	<path fill="url(#SVGID_8_)" d="M198,91c0-18.1,0-36.2,0.1-54.3c0-2-0.6-2.7-2.5-3.3c-30.7-9.1-61.3-18.4-92-27.5
		c-1.3-0.4-3-0.4-4.3,0c-30.7,9.1-61.3,18.3-92,27.5c-1.7,0.5-2.4,1.2-2.4,3.1C5,71.3,4.9,106.1,5,140.8c0,5.5,0.9,10.9,3.1,16
		c5.2,12.6,14,22.6,24,31.5c19.9,17.5,42.5,30.4,67.5,39.1c1.2,0.4,2.8,0.4,4,0c16.2-5.5,31.4-13.2,45.7-22.6
		c14.6-9.6,28.1-20.5,38.4-34.9c6.7-9.3,10.7-19.4,10.5-31.2C197.8,122.9,198,106.9,198,91z M183.6,167.6
		c-9.8,13.7-22.6,24.1-36.6,33.3c-13.6,9-28.1,16.3-43.6,21.5c-1.2,0.4-2.7,0.4-3.9,0c-23.8-8.4-45.4-20.6-64.4-37.3
		c-9.6-8.5-17.9-18-22.9-30.1c-2-4.9-2.9-10-2.9-15.3c0-33.2,0-66.3,0-99.5c0-1.8,0.6-2.5,2.2-3c29.3-8.7,58.5-17.5,87.7-26.2
		c1.3-0.4,2.9-0.4,4.1,0c29.3,8.7,58.5,17.5,87.7,26.2c1.7,0.5,2.4,1.2,2.4,3.1c-0.1,17.3-0.1,34.5-0.1,51.8
		c0,15.2-0.2,30.4,0.1,45.6C193.8,149,190,158.7,183.6,167.6z"/>
</g>
</svg>
