<svg xmlns="http://www.w3.org/2000/svg" viewBox="0 0 203 233.4"><linearGradient id="a" gradientUnits="userSpaceOnUse" x1="156" y1="158.8" x2="5.9" y2="60.4"><stop offset="0" stop-color="#e5e2df"/><stop offset="0" stop-color="#ded9d6"/><stop offset=".1" stop-color="#cfcac9"/><stop offset=".2" stop-color="#a8a4a7"/><stop offset=".3" stop-color="#8b878d"/><stop offset=".5" stop-color="#f3f4f4"/><stop offset=".6" stop-color="#e5e5e6"/><stop offset=".7" stop-color="#c0bec0"/><stop offset=".9" stop-color="#858085"/><stop offset=".9" stop-color="#807b80"/><stop offset="1" stop-color="#d1d3d4"/><stop offset="1" stop-color="#a7a9ac"/></linearGradient><path fill="url(#a)" d="M150.1 103.6a52.5 52.5 0 0 0-89.3-13.4 51.5 51.5 0 0 0-7.9 52.3 52.5 52.5 0 0 0 97.2-38.9zm-9-11.2l-11 6.3a36.9 36.9 0 0 0-21.5-12.5V73.5a50.1 50.1 0 0 1 32.5 18.9zm-46.7 65.2a34.9 34.9 0 0 1-28.1-34.5c0-4.1.7-8.1 2-11.8a36.6 36.6 0 0 1 6.1-10.7l1.2-1.3a34.1 34.1 0 0 1 18.8-10.8l1.7-.3 3.5-.4h3.6l3.5.4 1.7.3a35.4 35.4 0 0 1 26.1 46.3 34.7 34.7 0 0 1-26.1 22.7c-2.3.5-4.7.7-7.1.7-2.2.1-4.6-.2-6.9-.6zm0-84.1v12.7a37.4 37.4 0 0 0-20.8 11.7l-10.9-6.6c7.8-9.4 19-16 31.7-17.8zm-43 49.5c0-6.9 1.4-13.5 4-19.6l10.9 6.6a37 37 0 0 0-.3 25l-11 6.3a48.1 48.1 0 0 1-3.6-18.3zm10.5 30.7l11-6.3a37 37 0 0 0 21.4 12.5v12.7a50.3 50.3 0 0 1-32.4-18.9zm46.7 18.9v-12.7a37.6 37.6 0 0 0 20.8-11.8l10.9 6.6a50.2 50.2 0 0 1-31.7 17.9zm39-30l-10.9-6.6a37 37 0 0 0 .3-25.1l11-6.3a50.9 50.9 0 0 1-.4 38z"/><linearGradient id="b" gradientUnits="userSpaceOnUse" x1="32.7" y1="6.2" x2="218.4" y2="132.8"><stop offset="0" stop-color="#fbc926"/><stop offset=".3" stop-color="#fffbcc"/><stop offset=".3" stop-color="#f8f0bb"/><stop offset=".4" stop-color="#e7d28e"/><stop offset=".6" stop-color="#cca246"/><stop offset=".6" stop-color="#c3922e"/><stop offset=".9" stop-color="#eed688"/><stop offset="1" stop-color="#fffbcc"/></linearGradient><path fill="url(#b)" d="M132 47.4c-.5-.6-1.3-.9-2.1-.9a3 3 0 0 0-3 3 3 3 0 0 0 2 2.8c-1.8 2.8-4 5-7.8 3.7-4-1.4-3.7-5.3-3.1-7.5l.8.1a3 3 0 0 0 3-3 3 3 0 0 0-3-3 3 3 0 0 0-3 3 3 3 0 0 0 1.7 2.7c-1.4 1.7-4.5 4.5-8.7 3.8-3.5-.6-4.9-3.9-5.4-7h1.7c2 0 3.6-1.6 3.6-3.6s-1.6-3.6-3.6-3.6h-2c-.1-2.6-.3-5.8-1.6-7.6a9.5 9.5 0 0 0-1.4 4.4l-.2 3.1h-2c-2 0-3.6 1.6-3.6 3.6s1.6 3.6 3.6 3.6h1.7c-.5 3.1-1.8 6.4-5.4 7-4.2.8-7.2-2-8.6-3.7a3 3 0 0 0 1.7-2.7 3 3 0 0 0-3-3 3 3 0 0 0-3 3 3 3 0 0 0 3 3l.8-.1c.5 2.1.8 6.1-3.1 7.5-3.8 1.3-5.9-.9-7.8-3.7a3 3 0 0 0 2-2.8 3 3 0 0 0-3-3c-.8 0-1.6.3-2.1.9C68.6 44.3 66 45 66 45l12.3 24.5a65.8 65.8 0 0 1 23.7-4.1 65 65 0 0 1 22.9 3.8L137 45s-2.5-.7-5 2.4z"/><linearGradient id="c" gradientUnits="userSpaceOnUse" x1=".3" y1="53.7" x2="186" y2="180.3"><stop offset="0" stop-color="#fbc926"/><stop offset=".3" stop-color="#fffbcc"/><stop offset=".3" stop-color="#f8f0bb"/><stop offset=".4" stop-color="#e7d28e"/><stop offset=".6" stop-color="#cca246"/><stop offset=".6" stop-color="#c3922e"/><stop offset=".9" stop-color="#eed688"/><stop offset="1" stop-color="#fffbcc"/></linearGradient><path fill="url(#c)" d="M101.5 130.6s3.4 4.9 9.3 4.5c7.2-.5 11.5-9.2 4.8-16.1-5.5-5.7-11.5-9.7-14.1-16.6-2.6 6.9-8.7 10.9-14.1 16.6-6.7 6.9-2.4 15.6 4.8 16.1 5.9.4 9.3-4.5 9.3-4.5z"/><linearGradient id="d" gradientUnits="userSpaceOnUse" x1="-6.1" y1="63.1" x2="179.6" y2="189.7"><stop offset="0" stop-color="#fbc926"/><stop offset=".3" stop-color="#fffbcc"/><stop offset=".3" stop-color="#f8f0bb"/><stop offset=".4" stop-color="#e7d28e"/><stop offset=".6" stop-color="#cca246"/><stop offset=".6" stop-color="#c3922e"/><stop offset=".9" stop-color="#eed688"/><stop offset="1" stop-color="#fffbcc"/></linearGradient><path fill="url(#d)" d="M105.7 139.9h-.1a12 12 0 0 0-8 0h-.1c3.5-2.3 3.5-9.5 3.5-9.5h1.3c-.2.1-.2 7.2 3.4 9.5z"/><linearGradient id="e" gradientUnits="userSpaceOnUse" x1="101.5" y1="-13.3" x2="101.5" y2="157.9"><stop offset="0" stop-color="#fbc926"/><stop offset=".3" stop-color="#fffbcc"/><stop offset=".3" stop-color="#f8f0bb"/><stop offset=".4" stop-color="#e7d28e"/><stop offset=".6" stop-color="#cca246"/><stop offset=".6" stop-color="#c3922e"/><stop offset=".9" stop-color="#eed688"/><stop offset="1" stop-color="#fffbcc"/></linearGradient><path fill="url(#e)" d="M201.9 89.9l.1-56.5c0-2-.6-2.8-2.6-3.4L103.7 1.4a8.6 8.6 0 0 0-4.5 0L3.5 30.1c-1.8.5-2.5 1.3-2.5 3.2l.1 108.5c0 5.7 1 11.3 3.2 16.7a90.3 90.3 0 0 0 25 32.8A210.4 210.4 0 0 0 99.5 232c1.3.4 2.9.4 4.2 0a206.8 206.8 0 0 0 47.6-23.5c15.2-10 29.2-21.3 39.9-36.3a53.2 53.2 0 0 0 10.9-32.5c-.4-16.6-.2-33.2-.2-49.8zM99.6 222.4a194.4 194.4 0 0 1-64.4-37.3A82.7 82.7 0 0 1 12.3 155a40 40 0 0 1-2.9-15.3V40.2c0-1.8.6-2.5 2.2-3L99.3 11c1.3-.4 2.9-.4 4.1 0l87.7 26.2c1.7.5 2.4 1.2 2.4 3.1l-.1 51.8c0 15.2-.2 30.4.1 45.6a48.4 48.4 0 0 1-10 29.8 133.8 133.8 0 0 1-36.6 33.3c-13.6 9-28.1 16.3-43.6 21.5-1 .4-2.6.5-3.7.1z"/><linearGradient id="f" gradientUnits="userSpaceOnUse" x1="4.9" y1="116.7" x2="198.1" y2="116.7"><stop offset="0" stop-color="#fbc926"/><stop offset=".3" stop-color="#fffbcc"/><stop offset=".3" stop-color="#f8f0bb"/><stop offset=".4" stop-color="#e7d28e"/><stop offset=".6" stop-color="#cca246"/><stop offset=".6" stop-color="#c3922e"/><stop offset=".9" stop-color="#eed688"/><stop offset="1" stop-color="#fffbcc"/></linearGradient><path fill="url(#f)" d="M198 91l.1-54.3c0-2-.6-2.7-2.5-3.3l-92-27.5c-1.3-.4-3-.4-4.3 0l-92 27.5c-1.7.5-2.4 1.2-2.4 3.1L5 140.8a40 40 0 0 0 3.1 16 87.4 87.4 0 0 0 24 31.5 201.3 201.3 0 0 0 67.5 39.1c1.2.4 2.8.4 4 0a200.5 200.5 0 0 0 45.7-22.6 140.5 140.5 0 0 0 38.4-34.9 50.6 50.6 0 0 0 10.5-31.2c-.4-15.8-.2-31.8-.2-47.7zm-14.4 76.6a133.8 133.8 0 0 1-36.6 33.3c-13.6 9-28.1 16.3-43.6 21.5-1.2.4-2.7.4-3.9 0a194.4 194.4 0 0 1-64.4-37.3A82.7 82.7 0 0 1 12.2 155a40 40 0 0 1-2.9-15.3V40.2c0-1.8.6-2.5 2.2-3L99.2 11c1.3-.4 2.9-.4 4.1 0L191 37.2c1.7.5 2.4 1.2 2.4 3.1l-.1 51.8c0 15.2-.2 30.4.1 45.6.4 11.3-3.4 21-9.8 29.9z"/></svg>