<svg xmlns="http://www.w3.org/2000/svg" viewBox="0 0 203 233.4"><linearGradient id="a" gradientUnits="userSpaceOnUse" x1="165.61" y1="217.12" x2="-28.72" y2="30.52"><stop offset="0" stop-color="#e5e2df"/><stop offset="0" stop-color="#ded9d6"/><stop offset=".06" stop-color="#cfcac9"/><stop offset=".18" stop-color="#a8a4a7"/><stop offset=".26" stop-color="#8b878d"/><stop offset=".52" stop-color="#f3f4f4"/><stop offset=".58" stop-color="#e5e5e6"/><stop offset=".7" stop-color="#c0bec0"/><stop offset=".86" stop-color="#858085"/><stop offset=".88" stop-color="#807b80"/><stop offset="1" stop-color="#d1d3d4"/><stop offset="1" stop-color="#a7a9ac"/></linearGradient><path fill="url(#a)" d="M46.5 108.5h20v7.7h-20z"/><linearGradient id="b" gradientUnits="userSpaceOnUse" x1="187.19" y1="194.64" x2="-7.14" y2="8.04"><stop offset="0" stop-color="#e5e2df"/><stop offset="0" stop-color="#ded9d6"/><stop offset=".06" stop-color="#cfcac9"/><stop offset=".18" stop-color="#a8a4a7"/><stop offset=".26" stop-color="#8b878d"/><stop offset=".52" stop-color="#f3f4f4"/><stop offset=".58" stop-color="#e5e5e6"/><stop offset=".7" stop-color="#c0bec0"/><stop offset=".86" stop-color="#858085"/><stop offset=".88" stop-color="#807b80"/><stop offset="1" stop-color="#d1d3d4"/><stop offset="1" stop-color="#a7a9ac"/></linearGradient><path fill="url(#b)" d="M101.5 169c-31.2 0-56.7-25.4-56.7-56.7s25.4-56.7 56.7-56.7 56.7 25.4 56.7 56.7-25.5 56.7-56.7 56.7zm0-105.5a48.9 48.9 0 1 0 48.9 48.9c0-27-22-48.9-48.9-48.9z"/><linearGradient id="c" gradientUnits="userSpaceOnUse" x1="187.17" y1="194.62" x2="-7.16" y2="8.02"><stop offset="0" stop-color="#e5e2df"/><stop offset="0" stop-color="#ded9d6"/><stop offset=".06" stop-color="#cfcac9"/><stop offset=".18" stop-color="#a8a4a7"/><stop offset=".26" stop-color="#8b878d"/><stop offset=".52" stop-color="#f3f4f4"/><stop offset=".58" stop-color="#e5e5e6"/><stop offset=".7" stop-color="#c0bec0"/><stop offset=".86" stop-color="#858085"/><stop offset=".88" stop-color="#807b80"/><stop offset="1" stop-color="#d1d3d4"/><stop offset="1" stop-color="#a7a9ac"/></linearGradient><path fill="url(#c)" d="M101.5 152c-21.8 0-39.6-17.8-39.6-39.6s17.8-39.6 39.6-39.6 39.6 17.8 39.6 39.6-17.8 39.6-39.6 39.6zm0-71.5c-17.6 0-31.8 14.3-31.8 31.8s14.3 31.8 31.8 31.8 31.8-14.3 31.8-31.8-14.3-31.8-31.8-31.8z"/><linearGradient id="d" gradientUnits="userSpaceOnUse" x1="209.3" y1="171.62" x2="14.97" y2="-14.98"><stop offset="0" stop-color="#e5e2df"/><stop offset="0" stop-color="#ded9d6"/><stop offset=".06" stop-color="#cfcac9"/><stop offset=".18" stop-color="#a8a4a7"/><stop offset=".26" stop-color="#8b878d"/><stop offset=".52" stop-color="#f3f4f4"/><stop offset=".58" stop-color="#e5e5e6"/><stop offset=".7" stop-color="#c0bec0"/><stop offset=".86" stop-color="#858085"/><stop offset=".88" stop-color="#807b80"/><stop offset="1" stop-color="#d1d3d4"/><stop offset="1" stop-color="#a7a9ac"/></linearGradient><path fill="url(#d)" d="M97.7 58.1h7.7v20h-7.7z"/><linearGradient id="e" gradientUnits="userSpaceOnUse" x1="209.3" y1="171.62" x2="14.97" y2="-14.98"><stop offset="0" stop-color="#e5e2df"/><stop offset="0" stop-color="#ded9d6"/><stop offset=".06" stop-color="#cfcac9"/><stop offset=".18" stop-color="#a8a4a7"/><stop offset=".26" stop-color="#8b878d"/><stop offset=".52" stop-color="#f3f4f4"/><stop offset=".58" stop-color="#e5e5e6"/><stop offset=".7" stop-color="#c0bec0"/><stop offset=".86" stop-color="#858085"/><stop offset=".88" stop-color="#807b80"/><stop offset="1" stop-color="#d1d3d4"/><stop offset="1" stop-color="#a7a9ac"/></linearGradient><path fill="url(#e)" d="M97.7 58.1h7.7v20h-7.7z"/><linearGradient id="f" gradientUnits="userSpaceOnUse" x1="195.68" y1="185.8" x2="1.35" y2="-.79"><stop offset="0" stop-color="#e5e2df"/><stop offset="0" stop-color="#ded9d6"/><stop offset=".06" stop-color="#cfcac9"/><stop offset=".18" stop-color="#a8a4a7"/><stop offset=".26" stop-color="#8b878d"/><stop offset=".52" stop-color="#f3f4f4"/><stop offset=".58" stop-color="#e5e5e6"/><stop offset=".7" stop-color="#c0bec0"/><stop offset=".86" stop-color="#858085"/><stop offset=".88" stop-color="#807b80"/><stop offset="1" stop-color="#d1d3d4"/><stop offset="1" stop-color="#a7a9ac"/></linearGradient><path fill="url(#f)" d="M87.4 80.6l-6.6 3.9-10-17.4 6.6-3.8z"/><linearGradient id="g" gradientUnits="userSpaceOnUse" x1="179.69" y1="202.46" x2="-14.64" y2="15.86"><stop offset="0" stop-color="#e5e2df"/><stop offset="0" stop-color="#ded9d6"/><stop offset=".06" stop-color="#cfcac9"/><stop offset=".18" stop-color="#a8a4a7"/><stop offset=".26" stop-color="#8b878d"/><stop offset=".52" stop-color="#f3f4f4"/><stop offset=".58" stop-color="#e5e5e6"/><stop offset=".7" stop-color="#c0bec0"/><stop offset=".86" stop-color="#858085"/><stop offset=".88" stop-color="#807b80"/><stop offset="1" stop-color="#d1d3d4"/><stop offset="1" stop-color="#a7a9ac"/></linearGradient><path fill="url(#g)" d="M73.2 91.8l-3.8 6.6-17.3-10 3.8-6.6z"/><linearGradient id="h" gradientUnits="userSpaceOnUse" x1="157.22" y1="225.86" x2="-37.11" y2="39.26"><stop offset="0" stop-color="#e5e2df"/><stop offset="0" stop-color="#ded9d6"/><stop offset=".06" stop-color="#cfcac9"/><stop offset=".18" stop-color="#a8a4a7"/><stop offset=".26" stop-color="#8b878d"/><stop offset=".52" stop-color="#f3f4f4"/><stop offset=".58" stop-color="#e5e5e6"/><stop offset=".7" stop-color="#c0bec0"/><stop offset=".86" stop-color="#858085"/><stop offset=".88" stop-color="#807b80"/><stop offset="1" stop-color="#d1d3d4"/><stop offset="1" stop-color="#a7a9ac"/></linearGradient><path fill="url(#h)" d="M69 126.4l3.9 6.6-17.4 10-3.8-6.6z"/><linearGradient id="i" gradientUnits="userSpaceOnUse" x1="156.76" y1="226.33" x2="-37.57" y2="39.74"><stop offset="0" stop-color="#e5e2df"/><stop offset="0" stop-color="#ded9d6"/><stop offset=".06" stop-color="#cfcac9"/><stop offset=".18" stop-color="#a8a4a7"/><stop offset=".26" stop-color="#8b878d"/><stop offset=".52" stop-color="#f3f4f4"/><stop offset=".58" stop-color="#e5e5e6"/><stop offset=".7" stop-color="#c0bec0"/><stop offset=".86" stop-color="#858085"/><stop offset=".88" stop-color="#807b80"/><stop offset="1" stop-color="#d1d3d4"/><stop offset="1" stop-color="#a7a9ac"/></linearGradient><path fill="url(#i)" d="M80.2 140.6l6.6 3.8-10 17.4-6.6-3.9z"/><linearGradient id="j" gradientUnits="userSpaceOnUse" x1="164.36" y1="218.42" x2="-29.97" y2="31.82"><stop offset="0" stop-color="#e5e2df"/><stop offset="0" stop-color="#ded9d6"/><stop offset=".06" stop-color="#cfcac9"/><stop offset=".18" stop-color="#a8a4a7"/><stop offset=".26" stop-color="#8b878d"/><stop offset=".52" stop-color="#f3f4f4"/><stop offset=".58" stop-color="#e5e5e6"/><stop offset=".7" stop-color="#c0bec0"/><stop offset=".86" stop-color="#858085"/><stop offset=".88" stop-color="#807b80"/><stop offset="1" stop-color="#d1d3d4"/><stop offset="1" stop-color="#a7a9ac"/></linearGradient><path fill="url(#j)" d="M96.9 147.3h7.7v20h-7.7z"/><linearGradient id="k" gradientUnits="userSpaceOnUse" x1="177.98" y1="204.23" x2="-16.35" y2="17.64"><stop offset="0" stop-color="#e5e2df"/><stop offset="0" stop-color="#ded9d6"/><stop offset=".06" stop-color="#cfcac9"/><stop offset=".18" stop-color="#a8a4a7"/><stop offset=".26" stop-color="#8b878d"/><stop offset=".52" stop-color="#f3f4f4"/><stop offset=".58" stop-color="#e5e5e6"/><stop offset=".7" stop-color="#c0bec0"/><stop offset=".86" stop-color="#858085"/><stop offset=".88" stop-color="#807b80"/><stop offset="1" stop-color="#d1d3d4"/><stop offset="1" stop-color="#a7a9ac"/></linearGradient><path fill="url(#k)" d="M114.8 144.8l6.6-3.8 10 17.3-6.6 3.8z"/><linearGradient id="l" gradientUnits="userSpaceOnUse" x1="193.97" y1="187.58" x2="-.36" y2=".99"><stop offset="0" stop-color="#e5e2df"/><stop offset="0" stop-color="#ded9d6"/><stop offset=".06" stop-color="#cfcac9"/><stop offset=".18" stop-color="#a8a4a7"/><stop offset=".26" stop-color="#8b878d"/><stop offset=".52" stop-color="#f3f4f4"/><stop offset=".58" stop-color="#e5e5e6"/><stop offset=".7" stop-color="#c0bec0"/><stop offset=".86" stop-color="#858085"/><stop offset=".88" stop-color="#807b80"/><stop offset="1" stop-color="#d1d3d4"/><stop offset="1" stop-color="#a7a9ac"/></linearGradient><path fill="url(#l)" d="M129 133.7l3.8-6.7 17.4 10-3.9 6.7z"/><linearGradient id="m" gradientUnits="userSpaceOnUse" x1="208.05" y1="172.92" x2="13.72" y2="-13.67"><stop offset="0" stop-color="#e5e2df"/><stop offset="0" stop-color="#ded9d6"/><stop offset=".06" stop-color="#cfcac9"/><stop offset=".18" stop-color="#a8a4a7"/><stop offset=".26" stop-color="#8b878d"/><stop offset=".52" stop-color="#f3f4f4"/><stop offset=".58" stop-color="#e5e5e6"/><stop offset=".7" stop-color="#c0bec0"/><stop offset=".86" stop-color="#858085"/><stop offset=".88" stop-color="#807b80"/><stop offset="1" stop-color="#d1d3d4"/><stop offset="1" stop-color="#a7a9ac"/></linearGradient><path fill="url(#m)" d="M135.7 109.3h20v7.7h-20z"/><linearGradient id="n" gradientUnits="userSpaceOnUse" x1="216.44" y1="164.18" x2="22.11" y2="-22.41"><stop offset="0" stop-color="#e5e2df"/><stop offset="0" stop-color="#ded9d6"/><stop offset=".06" stop-color="#cfcac9"/><stop offset=".18" stop-color="#a8a4a7"/><stop offset=".26" stop-color="#8b878d"/><stop offset=".52" stop-color="#f3f4f4"/><stop offset=".58" stop-color="#e5e5e6"/><stop offset=".7" stop-color="#c0bec0"/><stop offset=".86" stop-color="#858085"/><stop offset=".88" stop-color="#807b80"/><stop offset="1" stop-color="#d1d3d4"/><stop offset="1" stop-color="#a7a9ac"/></linearGradient><path fill="url(#n)" d="M133.2 99.1l-3.8-6.7 17.3-10 3.8 6.6z"/><linearGradient id="o" gradientUnits="userSpaceOnUse" x1="216.9" y1="163.71" x2="22.57" y2="-22.89"><stop offset="0" stop-color="#e5e2df"/><stop offset="0" stop-color="#ded9d6"/><stop offset=".06" stop-color="#cfcac9"/><stop offset=".18" stop-color="#a8a4a7"/><stop offset=".26" stop-color="#8b878d"/><stop offset=".52" stop-color="#f3f4f4"/><stop offset=".58" stop-color="#e5e5e6"/><stop offset=".7" stop-color="#c0bec0"/><stop offset=".86" stop-color="#858085"/><stop offset=".88" stop-color="#807b80"/><stop offset="1" stop-color="#d1d3d4"/><stop offset="1" stop-color="#a7a9ac"/></linearGradient><path fill="url(#o)" d="M122.1 84.8l-6.7-3.8 10-17.3 6.7 3.8z"/><linearGradient id="p" gradientUnits="userSpaceOnUse" x1="187.13" y1="194.7" x2="-7.19" y2="8.1"><stop offset="0" stop-color="#e5e2df"/><stop offset="0" stop-color="#ded9d6"/><stop offset=".06" stop-color="#cfcac9"/><stop offset=".18" stop-color="#a8a4a7"/><stop offset=".26" stop-color="#8b878d"/><stop offset=".52" stop-color="#f3f4f4"/><stop offset=".58" stop-color="#e5e5e6"/><stop offset=".7" stop-color="#c0bec0"/><stop offset=".86" stop-color="#858085"/><stop offset=".88" stop-color="#807b80"/><stop offset="1" stop-color="#d1d3d4"/><stop offset="1" stop-color="#a7a9ac"/></linearGradient><circle fill="url(#p)" cx="101.4" cy="112.3" r="6.9"/><linearGradient id="q" gradientUnits="userSpaceOnUse" x1="177.43" y1="204.81" x2="-16.9" y2="18.21"><stop offset="0" stop-color="#e5e2df"/><stop offset="0" stop-color="#ded9d6"/><stop offset=".06" stop-color="#cfcac9"/><stop offset=".18" stop-color="#a8a4a7"/><stop offset=".26" stop-color="#8b878d"/><stop offset=".52" stop-color="#f3f4f4"/><stop offset=".58" stop-color="#e5e5e6"/><stop offset=".7" stop-color="#c0bec0"/><stop offset=".86" stop-color="#858085"/><stop offset=".88" stop-color="#807b80"/><stop offset="1" stop-color="#d1d3d4"/><stop offset="1" stop-color="#a7a9ac"/></linearGradient><circle fill="url(#q)" cx="81.1" cy="112.3" r="3.8"/><linearGradient id="r" gradientUnits="userSpaceOnUse" x1="196.63" y1="184.81" x2="2.3" y2="-1.78"><stop offset="0" stop-color="#e5e2df"/><stop offset="0" stop-color="#ded9d6"/><stop offset=".06" stop-color="#cfcac9"/><stop offset=".18" stop-color="#a8a4a7"/><stop offset=".26" stop-color="#8b878d"/><stop offset=".52" stop-color="#f3f4f4"/><stop offset=".58" stop-color="#e5e5e6"/><stop offset=".7" stop-color="#c0bec0"/><stop offset=".86" stop-color="#858085"/><stop offset=".88" stop-color="#807b80"/><stop offset="1" stop-color="#d1d3d4"/><stop offset="1" stop-color="#a7a9ac"/></linearGradient><circle fill="url(#r)" cx="121.2" cy="112.3" r="3.8"/><linearGradient id="s" gradientUnits="userSpaceOnUse" x1="181.47" y1="200.59" x2="-12.85" y2="14"><stop offset="0" stop-color="#e5e2df"/><stop offset="0" stop-color="#ded9d6"/><stop offset=".06" stop-color="#cfcac9"/><stop offset=".18" stop-color="#a8a4a7"/><stop offset=".26" stop-color="#8b878d"/><stop offset=".52" stop-color="#f3f4f4"/><stop offset=".58" stop-color="#e5e5e6"/><stop offset=".7" stop-color="#c0bec0"/><stop offset=".86" stop-color="#858085"/><stop offset=".88" stop-color="#807b80"/><stop offset="1" stop-color="#d1d3d4"/><stop offset="1" stop-color="#a7a9ac"/></linearGradient><path fill="url(#s)" d="M99.1 115.6l-21.7-3 21.7-3z"/><linearGradient id="t" gradientUnits="userSpaceOnUse" x1="192.37" y1="189.25" x2="-1.96" y2="2.65"><stop offset="0" stop-color="#e5e2df"/><stop offset="0" stop-color="#ded9d6"/><stop offset=".06" stop-color="#cfcac9"/><stop offset=".18" stop-color="#a8a4a7"/><stop offset=".26" stop-color="#8b878d"/><stop offset=".52" stop-color="#f3f4f4"/><stop offset=".58" stop-color="#e5e5e6"/><stop offset=".7" stop-color="#c0bec0"/><stop offset=".86" stop-color="#858085"/><stop offset=".88" stop-color="#807b80"/><stop offset="1" stop-color="#d1d3d4"/><stop offset="1" stop-color="#a7a9ac"/></linearGradient><path fill="url(#t)" d="M103.2 115.6l21.7-3-21.7-3z"/><linearGradient id="u" gradientUnits="userSpaceOnUse" x1="177.03" y1="205.22" x2="-17.3" y2="18.62"><stop offset="0" stop-color="#e5e2df"/><stop offset="0" stop-color="#ded9d6"/><stop offset=".06" stop-color="#cfcac9"/><stop offset=".18" stop-color="#a8a4a7"/><stop offset=".26" stop-color="#8b878d"/><stop offset=".52" stop-color="#f3f4f4"/><stop offset=".58" stop-color="#e5e5e6"/><stop offset=".7" stop-color="#c0bec0"/><stop offset=".86" stop-color="#858085"/><stop offset=".88" stop-color="#807b80"/><stop offset="1" stop-color="#d1d3d4"/><stop offset="1" stop-color="#a7a9ac"/></linearGradient><circle fill="url(#u)" cx="101.1" cy="132.4" r="3.8"/><linearGradient id="v" gradientUnits="userSpaceOnUse" x1="197.03" y1="184.4" x2="2.7" y2="-2.2"><stop offset="0" stop-color="#e5e2df"/><stop offset="0" stop-color="#ded9d6"/><stop offset=".06" stop-color="#cfcac9"/><stop offset=".18" stop-color="#a8a4a7"/><stop offset=".26" stop-color="#8b878d"/><stop offset=".52" stop-color="#f3f4f4"/><stop offset=".58" stop-color="#e5e5e6"/><stop offset=".7" stop-color="#c0bec0"/><stop offset=".86" stop-color="#858085"/><stop offset=".88" stop-color="#807b80"/><stop offset="1" stop-color="#d1d3d4"/><stop offset="1" stop-color="#a7a9ac"/></linearGradient><circle fill="url(#v)" cx="101.1" cy="92.3" r="3.8"/><linearGradient id="w" gradientUnits="userSpaceOnUse" x1="181.4" y1="200.67" x2="-12.93" y2="14.08"><stop offset="0" stop-color="#e5e2df"/><stop offset="0" stop-color="#ded9d6"/><stop offset=".06" stop-color="#cfcac9"/><stop offset=".18" stop-color="#a8a4a7"/><stop offset=".26" stop-color="#8b878d"/><stop offset=".52" stop-color="#f3f4f4"/><stop offset=".58" stop-color="#e5e5e6"/><stop offset=".7" stop-color="#c0bec0"/><stop offset=".86" stop-color="#858085"/><stop offset=".88" stop-color="#807b80"/><stop offset="1" stop-color="#d1d3d4"/><stop offset="1" stop-color="#a7a9ac"/></linearGradient><path fill="url(#w)" d="M104.4 114.4l-3 21.7-3-21.7z"/><linearGradient id="x" gradientUnits="userSpaceOnUse" x1="192.87" y1="188.73" x2="-1.46" y2="2.13"><stop offset="0" stop-color="#e5e2df"/><stop offset="0" stop-color="#ded9d6"/><stop offset=".06" stop-color="#cfcac9"/><stop offset=".18" stop-color="#a8a4a7"/><stop offset=".26" stop-color="#8b878d"/><stop offset=".52" stop-color="#f3f4f4"/><stop offset=".58" stop-color="#e5e5e6"/><stop offset=".7" stop-color="#c0bec0"/><stop offset=".86" stop-color="#858085"/><stop offset=".88" stop-color="#807b80"/><stop offset="1" stop-color="#d1d3d4"/><stop offset="1" stop-color="#a7a9ac"/></linearGradient><path fill="url(#x)" d="M104.4 110.3l-3-21.7-3 21.7z"/><linearGradient id="y" gradientUnits="userSpaceOnUse" x1="101.48" y1="-13.32" x2="101.48" y2="157.86"><stop offset=".01" stop-color="#fbc926"/><stop offset=".25" stop-color="#fffbcc"/><stop offset=".3" stop-color="#f8f0bb"/><stop offset=".41" stop-color="#e7d28e"/><stop offset=".55" stop-color="#cca246"/><stop offset=".6" stop-color="#c3922e"/><stop offset=".87" stop-color="#eed688"/><stop offset="1" stop-color="#fffbcc"/></linearGradient><path fill="url(#y)" d="M201.9 89.9c0-18.8 0-37.7.1-56.5 0-2-.6-2.8-2.6-3.4-31.9-9.5-63.8-19.1-95.7-28.6-1.4-.4-3.1-.4-4.5 0C67.3 11 35.4 20.6 3.5 30.1c-1.8.5-2.5 1.3-2.5 3.2.1 36.2 0 72.3.1 108.5 0 5.7 1 11.3 3.2 16.7 5.4 13.1 14.5 23.5 25 32.8C50 209.5 73.5 222.9 99.5 232c1.3.4 2.9.4 4.2 0 16.9-5.7 32.7-13.7 47.6-23.5 15.2-10 29.2-21.3 39.9-36.3 6.9-9.7 11.1-20.2 10.9-32.5-.4-16.6-.2-33.2-.2-49.8zM99.6 222.4c-23.8-8.4-45.4-20.6-64.4-37.3-9.6-8.5-17.9-18-22.9-30.1-2-4.9-2.9-10-2.9-15.3V40.2c0-1.8.6-2.5 2.2-3C40.9 28.5 70.1 19.7 99.3 11c1.3-.4 2.9-.4 4.1 0 29.3 8.7 58.5 17.5 87.7 26.2 1.7.5 2.4 1.2 2.4 3.1-.1 17.3-.1 34.5-.1 51.8 0 15.2-.2 30.4.1 45.6.2 11.2-3.6 20.9-10 29.8-9.8 13.7-22.6 24.1-36.6 33.3-13.6 9-28.1 16.3-43.6 21.5-1 .4-2.6.5-3.7.1z"/><linearGradient id="z" gradientUnits="userSpaceOnUse" x1="4.89" y1="116.72" x2="198.07" y2="116.72"><stop offset=".01" stop-color="#fbc926"/><stop offset=".25" stop-color="#fffbcc"/><stop offset=".3" stop-color="#f8f0bb"/><stop offset=".41" stop-color="#e7d28e"/><stop offset=".55" stop-color="#cca246"/><stop offset=".6" stop-color="#c3922e"/><stop offset=".87" stop-color="#eed688"/><stop offset="1" stop-color="#fffbcc"/></linearGradient><path fill="url(#z)" d="M198 91c0-18.1 0-36.2.1-54.3 0-2-.6-2.7-2.5-3.3-30.7-9.1-61.3-18.4-92-27.5-1.3-.4-3-.4-4.3 0C68.6 15 38 24.2 7.3 33.4c-1.7.5-2.4 1.2-2.4 3.1.1 34.8 0 69.6.1 104.3 0 5.5.9 10.9 3.1 16 5.2 12.6 14 22.6 24 31.5 19.9 17.5 42.5 30.4 67.5 39.1 1.2.4 2.8.4 4 0 16.2-5.5 31.4-13.2 45.7-22.6 14.6-9.6 28.1-20.5 38.4-34.9 6.7-9.3 10.7-19.4 10.5-31.2-.4-15.8-.2-31.8-.2-47.7zm-14.4 76.6c-9.8 13.7-22.6 24.1-36.6 33.3-13.6 9-28.1 16.3-43.6 21.5-1.2.4-2.7.4-3.9 0-23.8-8.4-45.4-20.6-64.4-37.3-9.6-8.5-17.9-18-22.9-30.1-2-4.9-2.9-10-2.9-15.3V40.2c0-1.8.6-2.5 2.2-3C40.8 28.5 70 19.7 99.2 11c1.3-.4 2.9-.4 4.1 0 29.3 8.7 58.5 17.5 87.7 26.2 1.7.5 2.4 1.2 2.4 3.1-.1 17.3-.1 34.5-.1 51.8 0 15.2-.2 30.4.1 45.6.4 11.3-3.4 21-9.8 29.9z"/></svg>