<?xml version="1.0" encoding="utf-8"?>
<!-- Generator: Adobe Illustrator 18.0.0, SVG Export Plug-In . SVG Version: 6.00 Build 0)  -->
<!DOCTYPE svg PUBLIC "-//W3C//DTD SVG 1.1//EN" "http://www.w3.org/Graphics/SVG/1.1/DTD/svg11.dtd">
<svg version="1.1" id="Layer_1" xmlns="http://www.w3.org/2000/svg" xmlns:xlink="http://www.w3.org/1999/xlink" x="0px" y="0px"
	 viewBox="0 0 203 233.4" enable-background="new 0 0 203 233.4" xml:space="preserve">
<g>
	<g>
		<g>
			<linearGradient id="SVGID_1_" gradientUnits="userSpaceOnUse" x1="165.6087" y1="217.1169" x2="-28.7189" y2="30.5212">
				<stop  offset="0" style="stop-color:#E5E2DF"/>
				<stop  offset="0" style="stop-color:#DED9D6"/>
				<stop  offset="6.299578e-002" style="stop-color:#CFCAC9"/>
				<stop  offset="0.1833" style="stop-color:#A8A4A7"/>
				<stop  offset="0.264" style="stop-color:#8B878D"/>
				<stop  offset="0.5225" style="stop-color:#F3F4F4"/>
				<stop  offset="0.5842" style="stop-color:#E5E5E6"/>
				<stop  offset="0.7027" style="stop-color:#C0BEC0"/>
				<stop  offset="0.8647" style="stop-color:#858085"/>
				<stop  offset="0.8764" style="stop-color:#807B80"/>
				<stop  offset="1" style="stop-color:#D1D3D4"/>
				<stop  offset="1" style="stop-color:#A7A9AC"/>
			</linearGradient>
			<rect x="46.5" y="108.5" fill="url(#SVGID_1_)" width="20" height="7.7"/>
		</g>
		<g>
			<g>
				<g>
					<linearGradient id="SVGID_2_" gradientUnits="userSpaceOnUse" x1="187.1906" y1="194.6407" x2="-7.137" y2="8.045">
						<stop  offset="0" style="stop-color:#E5E2DF"/>
						<stop  offset="0" style="stop-color:#DED9D6"/>
						<stop  offset="6.299578e-002" style="stop-color:#CFCAC9"/>
						<stop  offset="0.1833" style="stop-color:#A8A4A7"/>
						<stop  offset="0.264" style="stop-color:#8B878D"/>
						<stop  offset="0.5225" style="stop-color:#F3F4F4"/>
						<stop  offset="0.5842" style="stop-color:#E5E5E6"/>
						<stop  offset="0.7027" style="stop-color:#C0BEC0"/>
						<stop  offset="0.8647" style="stop-color:#858085"/>
						<stop  offset="0.8764" style="stop-color:#807B80"/>
						<stop  offset="1" style="stop-color:#D1D3D4"/>
						<stop  offset="1" style="stop-color:#A7A9AC"/>
					</linearGradient>
					<path fill="url(#SVGID_2_)" d="M101.5,169c-31.2,0-56.7-25.4-56.7-56.7s25.4-56.7,56.7-56.7s56.7,25.4,56.7,56.7
						S132.7,169,101.5,169z M101.5,63.5c-27,0-48.9,21.9-48.9,48.9s21.9,48.9,48.9,48.9s48.9-21.9,48.9-48.9S128.4,63.5,101.5,63.5z
						"/>
				</g>
			</g>
			<g>
				<g>
					<linearGradient id="SVGID_3_" gradientUnits="userSpaceOnUse" x1="187.1695" y1="194.6205" x2="-7.158" y2="8.0248">
						<stop  offset="0" style="stop-color:#E5E2DF"/>
						<stop  offset="0" style="stop-color:#DED9D6"/>
						<stop  offset="6.299578e-002" style="stop-color:#CFCAC9"/>
						<stop  offset="0.1833" style="stop-color:#A8A4A7"/>
						<stop  offset="0.264" style="stop-color:#8B878D"/>
						<stop  offset="0.5225" style="stop-color:#F3F4F4"/>
						<stop  offset="0.5842" style="stop-color:#E5E5E6"/>
						<stop  offset="0.7027" style="stop-color:#C0BEC0"/>
						<stop  offset="0.8647" style="stop-color:#858085"/>
						<stop  offset="0.8764" style="stop-color:#807B80"/>
						<stop  offset="1" style="stop-color:#D1D3D4"/>
						<stop  offset="1" style="stop-color:#A7A9AC"/>
					</linearGradient>
					<path fill="url(#SVGID_3_)" d="M101.5,152c-21.8,0-39.6-17.8-39.6-39.6s17.8-39.6,39.6-39.6s39.6,17.8,39.6,39.6
						S123.3,152,101.5,152z M101.5,80.5c-17.6,0-31.8,14.3-31.8,31.8s14.3,31.8,31.8,31.8s31.8-14.3,31.8-31.8S119,80.5,101.5,80.5z
						"/>
				</g>
			</g>
			<g>
				<linearGradient id="SVGID_4_" gradientUnits="userSpaceOnUse" x1="209.2961" y1="171.6193" x2="14.9685" y2="-14.9765">
					<stop  offset="0" style="stop-color:#E5E2DF"/>
					<stop  offset="0" style="stop-color:#DED9D6"/>
					<stop  offset="6.299578e-002" style="stop-color:#CFCAC9"/>
					<stop  offset="0.1833" style="stop-color:#A8A4A7"/>
					<stop  offset="0.264" style="stop-color:#8B878D"/>
					<stop  offset="0.5225" style="stop-color:#F3F4F4"/>
					<stop  offset="0.5842" style="stop-color:#E5E5E6"/>
					<stop  offset="0.7027" style="stop-color:#C0BEC0"/>
					<stop  offset="0.8647" style="stop-color:#858085"/>
					<stop  offset="0.8764" style="stop-color:#807B80"/>
					<stop  offset="1" style="stop-color:#D1D3D4"/>
					<stop  offset="1" style="stop-color:#A7A9AC"/>
				</linearGradient>
				<rect x="97.7" y="58.1" fill="url(#SVGID_4_)" width="7.7" height="20"/>
			</g>
			<g>
				<linearGradient id="SVGID_5_" gradientUnits="userSpaceOnUse" x1="209.2961" y1="171.6193" x2="14.9685" y2="-14.9765">
					<stop  offset="0" style="stop-color:#E5E2DF"/>
					<stop  offset="0" style="stop-color:#DED9D6"/>
					<stop  offset="6.299578e-002" style="stop-color:#CFCAC9"/>
					<stop  offset="0.1833" style="stop-color:#A8A4A7"/>
					<stop  offset="0.264" style="stop-color:#8B878D"/>
					<stop  offset="0.5225" style="stop-color:#F3F4F4"/>
					<stop  offset="0.5842" style="stop-color:#E5E5E6"/>
					<stop  offset="0.7027" style="stop-color:#C0BEC0"/>
					<stop  offset="0.8647" style="stop-color:#858085"/>
					<stop  offset="0.8764" style="stop-color:#807B80"/>
					<stop  offset="1" style="stop-color:#D1D3D4"/>
					<stop  offset="1" style="stop-color:#A7A9AC"/>
				</linearGradient>
				<rect x="97.7" y="58.1" fill="url(#SVGID_5_)" width="7.7" height="20"/>
			</g>
			<g>
				<linearGradient id="SVGID_6_" gradientUnits="userSpaceOnUse" x1="195.6765" y1="185.8032" x2="1.3489" y2="-0.7925">
					<stop  offset="0" style="stop-color:#E5E2DF"/>
					<stop  offset="0" style="stop-color:#DED9D6"/>
					<stop  offset="6.299578e-002" style="stop-color:#CFCAC9"/>
					<stop  offset="0.1833" style="stop-color:#A8A4A7"/>
					<stop  offset="0.264" style="stop-color:#8B878D"/>
					<stop  offset="0.5225" style="stop-color:#F3F4F4"/>
					<stop  offset="0.5842" style="stop-color:#E5E5E6"/>
					<stop  offset="0.7027" style="stop-color:#C0BEC0"/>
					<stop  offset="0.8647" style="stop-color:#858085"/>
					<stop  offset="0.8764" style="stop-color:#807B80"/>
					<stop  offset="1" style="stop-color:#D1D3D4"/>
					<stop  offset="1" style="stop-color:#A7A9AC"/>
				</linearGradient>
				<polygon fill="url(#SVGID_6_)" points="87.4,80.6 80.8,84.5 70.8,67.1 77.4,63.3 				"/>
			</g>
			<g>
				<linearGradient id="SVGID_7_" gradientUnits="userSpaceOnUse" x1="179.6858" y1="202.4565" x2="-14.6418" y2="15.8607">
					<stop  offset="0" style="stop-color:#E5E2DF"/>
					<stop  offset="0" style="stop-color:#DED9D6"/>
					<stop  offset="6.299578e-002" style="stop-color:#CFCAC9"/>
					<stop  offset="0.1833" style="stop-color:#A8A4A7"/>
					<stop  offset="0.264" style="stop-color:#8B878D"/>
					<stop  offset="0.5225" style="stop-color:#F3F4F4"/>
					<stop  offset="0.5842" style="stop-color:#E5E5E6"/>
					<stop  offset="0.7027" style="stop-color:#C0BEC0"/>
					<stop  offset="0.8647" style="stop-color:#858085"/>
					<stop  offset="0.8764" style="stop-color:#807B80"/>
					<stop  offset="1" style="stop-color:#D1D3D4"/>
					<stop  offset="1" style="stop-color:#A7A9AC"/>
				</linearGradient>
				<polygon fill="url(#SVGID_7_)" points="73.2,91.8 69.4,98.4 52.1,88.4 55.9,81.8 				"/>
			</g>
			<g>
				<linearGradient id="SVGID_8_" gradientUnits="userSpaceOnUse" x1="157.2171" y1="225.8562" x2="-37.1105" y2="39.2605">
					<stop  offset="0" style="stop-color:#E5E2DF"/>
					<stop  offset="0" style="stop-color:#DED9D6"/>
					<stop  offset="6.299578e-002" style="stop-color:#CFCAC9"/>
					<stop  offset="0.1833" style="stop-color:#A8A4A7"/>
					<stop  offset="0.264" style="stop-color:#8B878D"/>
					<stop  offset="0.5225" style="stop-color:#F3F4F4"/>
					<stop  offset="0.5842" style="stop-color:#E5E5E6"/>
					<stop  offset="0.7027" style="stop-color:#C0BEC0"/>
					<stop  offset="0.8647" style="stop-color:#858085"/>
					<stop  offset="0.8764" style="stop-color:#807B80"/>
					<stop  offset="1" style="stop-color:#D1D3D4"/>
					<stop  offset="1" style="stop-color:#A7A9AC"/>
				</linearGradient>
				<polygon fill="url(#SVGID_8_)" points="69,126.4 72.9,133 55.5,143 51.7,136.4 				"/>
			</g>
			<g>
				<linearGradient id="SVGID_9_" gradientUnits="userSpaceOnUse" x1="156.7596" y1="226.3327" x2="-37.568" y2="39.737">
					<stop  offset="0" style="stop-color:#E5E2DF"/>
					<stop  offset="0" style="stop-color:#DED9D6"/>
					<stop  offset="6.299578e-002" style="stop-color:#CFCAC9"/>
					<stop  offset="0.1833" style="stop-color:#A8A4A7"/>
					<stop  offset="0.264" style="stop-color:#8B878D"/>
					<stop  offset="0.5225" style="stop-color:#F3F4F4"/>
					<stop  offset="0.5842" style="stop-color:#E5E5E6"/>
					<stop  offset="0.7027" style="stop-color:#C0BEC0"/>
					<stop  offset="0.8647" style="stop-color:#858085"/>
					<stop  offset="0.8764" style="stop-color:#807B80"/>
					<stop  offset="1" style="stop-color:#D1D3D4"/>
					<stop  offset="1" style="stop-color:#A7A9AC"/>
				</linearGradient>
				<polygon fill="url(#SVGID_9_)" points="80.2,140.6 86.8,144.4 76.8,161.8 70.2,157.9 				"/>
			</g>
			<g>
				<linearGradient id="SVGID_10_" gradientUnits="userSpaceOnUse" x1="164.3587" y1="218.4187" x2="-29.9689" y2="31.823">
					<stop  offset="0" style="stop-color:#E5E2DF"/>
					<stop  offset="0" style="stop-color:#DED9D6"/>
					<stop  offset="6.299578e-002" style="stop-color:#CFCAC9"/>
					<stop  offset="0.1833" style="stop-color:#A8A4A7"/>
					<stop  offset="0.264" style="stop-color:#8B878D"/>
					<stop  offset="0.5225" style="stop-color:#F3F4F4"/>
					<stop  offset="0.5842" style="stop-color:#E5E5E6"/>
					<stop  offset="0.7027" style="stop-color:#C0BEC0"/>
					<stop  offset="0.8647" style="stop-color:#858085"/>
					<stop  offset="0.8764" style="stop-color:#807B80"/>
					<stop  offset="1" style="stop-color:#D1D3D4"/>
					<stop  offset="1" style="stop-color:#A7A9AC"/>
				</linearGradient>
				<rect x="96.9" y="147.3" fill="url(#SVGID_10_)" width="7.7" height="20"/>
			</g>
			<g>
				<linearGradient id="SVGID_11_" gradientUnits="userSpaceOnUse" x1="177.9782" y1="204.2348" x2="-16.3493" y2="17.6391">
					<stop  offset="0" style="stop-color:#E5E2DF"/>
					<stop  offset="0" style="stop-color:#DED9D6"/>
					<stop  offset="6.299578e-002" style="stop-color:#CFCAC9"/>
					<stop  offset="0.1833" style="stop-color:#A8A4A7"/>
					<stop  offset="0.264" style="stop-color:#8B878D"/>
					<stop  offset="0.5225" style="stop-color:#F3F4F4"/>
					<stop  offset="0.5842" style="stop-color:#E5E5E6"/>
					<stop  offset="0.7027" style="stop-color:#C0BEC0"/>
					<stop  offset="0.8647" style="stop-color:#858085"/>
					<stop  offset="0.8764" style="stop-color:#807B80"/>
					<stop  offset="1" style="stop-color:#D1D3D4"/>
					<stop  offset="1" style="stop-color:#A7A9AC"/>
				</linearGradient>
				<polygon fill="url(#SVGID_11_)" points="114.8,144.8 121.4,141 131.4,158.3 124.8,162.1 				"/>
			</g>
			<g>
				<linearGradient id="SVGID_12_" gradientUnits="userSpaceOnUse" x1="193.9689" y1="187.5815" x2="-0.3587" y2="0.9858">
					<stop  offset="0" style="stop-color:#E5E2DF"/>
					<stop  offset="0" style="stop-color:#DED9D6"/>
					<stop  offset="6.299578e-002" style="stop-color:#CFCAC9"/>
					<stop  offset="0.1833" style="stop-color:#A8A4A7"/>
					<stop  offset="0.264" style="stop-color:#8B878D"/>
					<stop  offset="0.5225" style="stop-color:#F3F4F4"/>
					<stop  offset="0.5842" style="stop-color:#E5E5E6"/>
					<stop  offset="0.7027" style="stop-color:#C0BEC0"/>
					<stop  offset="0.8647" style="stop-color:#858085"/>
					<stop  offset="0.8764" style="stop-color:#807B80"/>
					<stop  offset="1" style="stop-color:#D1D3D4"/>
					<stop  offset="1" style="stop-color:#A7A9AC"/>
				</linearGradient>
				<polygon fill="url(#SVGID_12_)" points="129,133.7 132.8,127 150.2,137 146.3,143.7 				"/>
			</g>
			<g>
				<linearGradient id="SVGID_13_" gradientUnits="userSpaceOnUse" x1="208.046" y1="172.9211" x2="13.7185" y2="-13.6746">
					<stop  offset="0" style="stop-color:#E5E2DF"/>
					<stop  offset="0" style="stop-color:#DED9D6"/>
					<stop  offset="6.299578e-002" style="stop-color:#CFCAC9"/>
					<stop  offset="0.1833" style="stop-color:#A8A4A7"/>
					<stop  offset="0.264" style="stop-color:#8B878D"/>
					<stop  offset="0.5225" style="stop-color:#F3F4F4"/>
					<stop  offset="0.5842" style="stop-color:#E5E5E6"/>
					<stop  offset="0.7027" style="stop-color:#C0BEC0"/>
					<stop  offset="0.8647" style="stop-color:#858085"/>
					<stop  offset="0.8764" style="stop-color:#807B80"/>
					<stop  offset="1" style="stop-color:#D1D3D4"/>
					<stop  offset="1" style="stop-color:#A7A9AC"/>
				</linearGradient>
				<rect x="135.7" y="109.3" fill="url(#SVGID_13_)" width="20" height="7.7"/>
			</g>
			<g>
				<linearGradient id="SVGID_14_" gradientUnits="userSpaceOnUse" x1="216.4376" y1="164.1818" x2="22.11" y2="-22.4139">
					<stop  offset="0" style="stop-color:#E5E2DF"/>
					<stop  offset="0" style="stop-color:#DED9D6"/>
					<stop  offset="6.299578e-002" style="stop-color:#CFCAC9"/>
					<stop  offset="0.1833" style="stop-color:#A8A4A7"/>
					<stop  offset="0.264" style="stop-color:#8B878D"/>
					<stop  offset="0.5225" style="stop-color:#F3F4F4"/>
					<stop  offset="0.5842" style="stop-color:#E5E5E6"/>
					<stop  offset="0.7027" style="stop-color:#C0BEC0"/>
					<stop  offset="0.8647" style="stop-color:#858085"/>
					<stop  offset="0.8764" style="stop-color:#807B80"/>
					<stop  offset="1" style="stop-color:#D1D3D4"/>
					<stop  offset="1" style="stop-color:#A7A9AC"/>
				</linearGradient>
				<polygon fill="url(#SVGID_14_)" points="133.2,99.1 129.4,92.4 146.7,82.4 150.5,89 				"/>
			</g>
			<g>
				<linearGradient id="SVGID_15_" gradientUnits="userSpaceOnUse" x1="216.8952" y1="163.7053" x2="22.5676" y2="-22.8904">
					<stop  offset="0" style="stop-color:#E5E2DF"/>
					<stop  offset="0" style="stop-color:#DED9D6"/>
					<stop  offset="6.299578e-002" style="stop-color:#CFCAC9"/>
					<stop  offset="0.1833" style="stop-color:#A8A4A7"/>
					<stop  offset="0.264" style="stop-color:#8B878D"/>
					<stop  offset="0.5225" style="stop-color:#F3F4F4"/>
					<stop  offset="0.5842" style="stop-color:#E5E5E6"/>
					<stop  offset="0.7027" style="stop-color:#C0BEC0"/>
					<stop  offset="0.8647" style="stop-color:#858085"/>
					<stop  offset="0.8764" style="stop-color:#807B80"/>
					<stop  offset="1" style="stop-color:#D1D3D4"/>
					<stop  offset="1" style="stop-color:#A7A9AC"/>
				</linearGradient>
				<polygon fill="url(#SVGID_15_)" points="122.1,84.8 115.4,81 125.4,63.7 132.1,67.5 				"/>
			</g>
			<g>
				<g>
					<linearGradient id="SVGID_16_" gradientUnits="userSpaceOnUse" x1="187.134" y1="194.6996" x2="-7.1935" y2="8.1039">
						<stop  offset="0" style="stop-color:#E5E2DF"/>
						<stop  offset="0" style="stop-color:#DED9D6"/>
						<stop  offset="6.299578e-002" style="stop-color:#CFCAC9"/>
						<stop  offset="0.1833" style="stop-color:#A8A4A7"/>
						<stop  offset="0.264" style="stop-color:#8B878D"/>
						<stop  offset="0.5225" style="stop-color:#F3F4F4"/>
						<stop  offset="0.5842" style="stop-color:#E5E5E6"/>
						<stop  offset="0.7027" style="stop-color:#C0BEC0"/>
						<stop  offset="0.8647" style="stop-color:#858085"/>
						<stop  offset="0.8764" style="stop-color:#807B80"/>
						<stop  offset="1" style="stop-color:#D1D3D4"/>
						<stop  offset="1" style="stop-color:#A7A9AC"/>
					</linearGradient>
					<circle fill="url(#SVGID_16_)" cx="101.4" cy="112.3" r="6.9"/>
				</g>
				<g>
					<g>
						<g>
							<linearGradient id="SVGID_17_" gradientUnits="userSpaceOnUse" x1="177.4298" y1="204.8059" x2="-16.8978" y2="18.2102">
								<stop  offset="0" style="stop-color:#E5E2DF"/>
								<stop  offset="0" style="stop-color:#DED9D6"/>
								<stop  offset="6.299578e-002" style="stop-color:#CFCAC9"/>
								<stop  offset="0.1833" style="stop-color:#A8A4A7"/>
								<stop  offset="0.264" style="stop-color:#8B878D"/>
								<stop  offset="0.5225" style="stop-color:#F3F4F4"/>
								<stop  offset="0.5842" style="stop-color:#E5E5E6"/>
								<stop  offset="0.7027" style="stop-color:#C0BEC0"/>
								<stop  offset="0.8647" style="stop-color:#858085"/>
								<stop  offset="0.8764" style="stop-color:#807B80"/>
								<stop  offset="1" style="stop-color:#D1D3D4"/>
								<stop  offset="1" style="stop-color:#A7A9AC"/>
							</linearGradient>
							<circle fill="url(#SVGID_17_)" cx="81.1" cy="112.3" r="3.8"/>
						</g>
						<g>
							<linearGradient id="SVGID_18_" gradientUnits="userSpaceOnUse" x1="196.629" y1="184.8111" x2="2.3015" y2="-1.7846">
								<stop  offset="0" style="stop-color:#E5E2DF"/>
								<stop  offset="0" style="stop-color:#DED9D6"/>
								<stop  offset="6.299578e-002" style="stop-color:#CFCAC9"/>
								<stop  offset="0.1833" style="stop-color:#A8A4A7"/>
								<stop  offset="0.264" style="stop-color:#8B878D"/>
								<stop  offset="0.5225" style="stop-color:#F3F4F4"/>
								<stop  offset="0.5842" style="stop-color:#E5E5E6"/>
								<stop  offset="0.7027" style="stop-color:#C0BEC0"/>
								<stop  offset="0.8647" style="stop-color:#858085"/>
								<stop  offset="0.8764" style="stop-color:#807B80"/>
								<stop  offset="1" style="stop-color:#D1D3D4"/>
								<stop  offset="1" style="stop-color:#A7A9AC"/>
							</linearGradient>
							<circle fill="url(#SVGID_18_)" cx="121.2" cy="112.3" r="3.8"/>
						</g>
					</g>
					<g>
						<g>
							<linearGradient id="SVGID_19_" gradientUnits="userSpaceOnUse" x1="181.4749" y1="200.5932" x2="-12.8527" y2="13.9975">
								<stop  offset="0" style="stop-color:#E5E2DF"/>
								<stop  offset="0" style="stop-color:#DED9D6"/>
								<stop  offset="6.299578e-002" style="stop-color:#CFCAC9"/>
								<stop  offset="0.1833" style="stop-color:#A8A4A7"/>
								<stop  offset="0.264" style="stop-color:#8B878D"/>
								<stop  offset="0.5225" style="stop-color:#F3F4F4"/>
								<stop  offset="0.5842" style="stop-color:#E5E5E6"/>
								<stop  offset="0.7027" style="stop-color:#C0BEC0"/>
								<stop  offset="0.8647" style="stop-color:#858085"/>
								<stop  offset="0.8764" style="stop-color:#807B80"/>
								<stop  offset="1" style="stop-color:#D1D3D4"/>
								<stop  offset="1" style="stop-color:#A7A9AC"/>
							</linearGradient>
							<polygon fill="url(#SVGID_19_)" points="99.1,115.6 77.4,112.6 77.4,112.6 99.1,109.6 							"/>
						</g>
						<g>
							<linearGradient id="SVGID_20_" gradientUnits="userSpaceOnUse" x1="192.3705" y1="189.2462" x2="-1.9571" y2="2.6505">
								<stop  offset="0" style="stop-color:#E5E2DF"/>
								<stop  offset="0" style="stop-color:#DED9D6"/>
								<stop  offset="6.299578e-002" style="stop-color:#CFCAC9"/>
								<stop  offset="0.1833" style="stop-color:#A8A4A7"/>
								<stop  offset="0.264" style="stop-color:#8B878D"/>
								<stop  offset="0.5225" style="stop-color:#F3F4F4"/>
								<stop  offset="0.5842" style="stop-color:#E5E5E6"/>
								<stop  offset="0.7027" style="stop-color:#C0BEC0"/>
								<stop  offset="0.8647" style="stop-color:#858085"/>
								<stop  offset="0.8764" style="stop-color:#807B80"/>
								<stop  offset="1" style="stop-color:#D1D3D4"/>
								<stop  offset="1" style="stop-color:#A7A9AC"/>
							</linearGradient>
							<polygon fill="url(#SVGID_20_)" points="103.2,115.6 124.9,112.6 124.9,112.6 103.2,109.6 							"/>
						</g>
					</g>
				</g>
				<g>
					<g>
						<linearGradient id="SVGID_21_" gradientUnits="userSpaceOnUse" x1="177.032" y1="205.2202" x2="-17.2956" y2="18.6245">
							<stop  offset="0" style="stop-color:#E5E2DF"/>
							<stop  offset="0" style="stop-color:#DED9D6"/>
							<stop  offset="6.299578e-002" style="stop-color:#CFCAC9"/>
							<stop  offset="0.1833" style="stop-color:#A8A4A7"/>
							<stop  offset="0.264" style="stop-color:#8B878D"/>
							<stop  offset="0.5225" style="stop-color:#F3F4F4"/>
							<stop  offset="0.5842" style="stop-color:#E5E5E6"/>
							<stop  offset="0.7027" style="stop-color:#C0BEC0"/>
							<stop  offset="0.8647" style="stop-color:#858085"/>
							<stop  offset="0.8764" style="stop-color:#807B80"/>
							<stop  offset="1" style="stop-color:#D1D3D4"/>
							<stop  offset="1" style="stop-color:#A7A9AC"/>
						</linearGradient>
						<circle fill="url(#SVGID_21_)" cx="101.1" cy="132.4" r="3.8"/>
					</g>
					<g>
						<linearGradient id="SVGID_22_" gradientUnits="userSpaceOnUse" x1="197.0268" y1="184.3969" x2="2.6992" y2="-2.1988">
							<stop  offset="0" style="stop-color:#E5E2DF"/>
							<stop  offset="0" style="stop-color:#DED9D6"/>
							<stop  offset="6.299578e-002" style="stop-color:#CFCAC9"/>
							<stop  offset="0.1833" style="stop-color:#A8A4A7"/>
							<stop  offset="0.264" style="stop-color:#8B878D"/>
							<stop  offset="0.5225" style="stop-color:#F3F4F4"/>
							<stop  offset="0.5842" style="stop-color:#E5E5E6"/>
							<stop  offset="0.7027" style="stop-color:#C0BEC0"/>
							<stop  offset="0.8647" style="stop-color:#858085"/>
							<stop  offset="0.8764" style="stop-color:#807B80"/>
							<stop  offset="1" style="stop-color:#D1D3D4"/>
							<stop  offset="1" style="stop-color:#A7A9AC"/>
						</linearGradient>
						<circle fill="url(#SVGID_22_)" cx="101.1" cy="92.3" r="3.8"/>
					</g>
				</g>
				<g>
					<g>
						<linearGradient id="SVGID_23_" gradientUnits="userSpaceOnUse" x1="181.3975" y1="200.6738" x2="-12.9301" y2="14.0781">
							<stop  offset="0" style="stop-color:#E5E2DF"/>
							<stop  offset="0" style="stop-color:#DED9D6"/>
							<stop  offset="6.299578e-002" style="stop-color:#CFCAC9"/>
							<stop  offset="0.1833" style="stop-color:#A8A4A7"/>
							<stop  offset="0.264" style="stop-color:#8B878D"/>
							<stop  offset="0.5225" style="stop-color:#F3F4F4"/>
							<stop  offset="0.5842" style="stop-color:#E5E5E6"/>
							<stop  offset="0.7027" style="stop-color:#C0BEC0"/>
							<stop  offset="0.8647" style="stop-color:#858085"/>
							<stop  offset="0.8764" style="stop-color:#807B80"/>
							<stop  offset="1" style="stop-color:#D1D3D4"/>
							<stop  offset="1" style="stop-color:#A7A9AC"/>
						</linearGradient>
						<polygon fill="url(#SVGID_23_)" points="104.4,114.4 101.4,136.1 101.4,136.1 98.4,114.4 						"/>
					</g>
					<g>
						<linearGradient id="SVGID_24_" gradientUnits="userSpaceOnUse" x1="192.8663" y1="188.7298" x2="-1.4613" y2="2.1341">
							<stop  offset="0" style="stop-color:#E5E2DF"/>
							<stop  offset="0" style="stop-color:#DED9D6"/>
							<stop  offset="6.299578e-002" style="stop-color:#CFCAC9"/>
							<stop  offset="0.1833" style="stop-color:#A8A4A7"/>
							<stop  offset="0.264" style="stop-color:#8B878D"/>
							<stop  offset="0.5225" style="stop-color:#F3F4F4"/>
							<stop  offset="0.5842" style="stop-color:#E5E5E6"/>
							<stop  offset="0.7027" style="stop-color:#C0BEC0"/>
							<stop  offset="0.8647" style="stop-color:#858085"/>
							<stop  offset="0.8764" style="stop-color:#807B80"/>
							<stop  offset="1" style="stop-color:#D1D3D4"/>
							<stop  offset="1" style="stop-color:#A7A9AC"/>
						</linearGradient>
						<polygon fill="url(#SVGID_24_)" points="104.4,110.3 101.4,88.6 101.4,88.6 98.4,110.3 						"/>
					</g>
				</g>
			</g>
		</g>
	</g>
	<linearGradient id="SVGID_25_" gradientUnits="userSpaceOnUse" x1="101.4832" y1="-13.3212" x2="101.4832" y2="157.8562">
		<stop  offset="5.618000e-003" style="stop-color:#FBC926"/>
		<stop  offset="0.2528" style="stop-color:#FFFBCC"/>
		<stop  offset="0.3045" style="stop-color:#F8F0BB"/>
		<stop  offset="0.4072" style="stop-color:#E7D28E"/>
		<stop  offset="0.55" style="stop-color:#CCA246"/>
		<stop  offset="0.5955" style="stop-color:#C3922E"/>
		<stop  offset="0.8708" style="stop-color:#EED688"/>
		<stop  offset="1" style="stop-color:#FFFBCC"/>
	</linearGradient>
	<path fill="url(#SVGID_25_)" d="M201.9,89.9c0-18.8,0-37.7,0.1-56.5c0-2-0.6-2.8-2.6-3.4c-31.9-9.5-63.8-19.1-95.7-28.6
		c-1.4-0.4-3.1-0.4-4.5,0C67.3,11,35.4,20.6,3.5,30.1C1.7,30.6,1,31.4,1,33.3c0.1,36.2,0,72.3,0.1,108.5c0,5.7,1,11.3,3.2,16.7
		c5.4,13.1,14.5,23.5,25,32.8c20.7,18.2,44.2,31.6,70.2,40.7c1.3,0.4,2.9,0.4,4.2,0c16.9-5.7,32.7-13.7,47.6-23.5
		c15.2-10,29.2-21.3,39.9-36.3c6.9-9.7,11.1-20.2,10.9-32.5C201.7,123.1,201.9,106.5,201.9,89.9z M99.6,222.4
		c-23.8-8.4-45.4-20.6-64.4-37.3c-9.6-8.5-17.9-18-22.9-30.1c-2-4.9-2.9-10-2.9-15.3c0-33.2,0-66.3,0-99.5c0-1.8,0.6-2.5,2.2-3
		c29.3-8.7,58.5-17.5,87.7-26.2c1.3-0.4,2.9-0.4,4.1,0c29.3,8.7,58.5,17.5,87.7,26.2c1.7,0.5,2.4,1.2,2.4,3.1
		c-0.1,17.3-0.1,34.5-0.1,51.8c0,15.2-0.2,30.4,0.1,45.6c0.2,11.2-3.6,20.9-10,29.8c-9.8,13.7-22.6,24.1-36.6,33.3
		c-13.6,9-28.1,16.3-43.6,21.5C102.3,222.7,100.7,222.8,99.6,222.4z"/>
	<linearGradient id="SVGID_26_" gradientUnits="userSpaceOnUse" x1="4.8934" y1="116.7216" x2="198.0729" y2="116.7216">
		<stop  offset="5.618000e-003" style="stop-color:#FBC926"/>
		<stop  offset="0.2528" style="stop-color:#FFFBCC"/>
		<stop  offset="0.3045" style="stop-color:#F8F0BB"/>
		<stop  offset="0.4072" style="stop-color:#E7D28E"/>
		<stop  offset="0.55" style="stop-color:#CCA246"/>
		<stop  offset="0.5955" style="stop-color:#C3922E"/>
		<stop  offset="0.8708" style="stop-color:#EED688"/>
		<stop  offset="1" style="stop-color:#FFFBCC"/>
	</linearGradient>
	<path fill="url(#SVGID_26_)" d="M198,91c0-18.1,0-36.2,0.1-54.3c0-2-0.6-2.7-2.5-3.3c-30.7-9.1-61.3-18.4-92-27.5
		c-1.3-0.4-3-0.4-4.3,0c-30.7,9.1-61.3,18.3-92,27.5c-1.7,0.5-2.4,1.2-2.4,3.1C5,71.3,4.9,106.1,5,140.8c0,5.5,0.9,10.9,3.1,16
		c5.2,12.6,14,22.6,24,31.5c19.9,17.5,42.5,30.4,67.5,39.1c1.2,0.4,2.8,0.4,4,0c16.2-5.5,31.4-13.2,45.7-22.6
		c14.6-9.6,28.1-20.5,38.4-34.9c6.7-9.3,10.7-19.4,10.5-31.2C197.8,122.9,198,106.9,198,91z M183.6,167.6
		c-9.8,13.7-22.6,24.1-36.6,33.3c-13.6,9-28.1,16.3-43.6,21.5c-1.2,0.4-2.7,0.4-3.9,0c-23.8-8.4-45.4-20.6-64.4-37.3
		c-9.6-8.5-17.9-18-22.9-30.1c-2-4.9-2.9-10-2.9-15.3c0-33.2,0-66.3,0-99.5c0-1.8,0.6-2.5,2.2-3c29.3-8.7,58.5-17.5,87.7-26.2
		c1.3-0.4,2.9-0.4,4.1,0c29.3,8.7,58.5,17.5,87.7,26.2c1.7,0.5,2.4,1.2,2.4,3.1c-0.1,17.3-0.1,34.5-0.1,51.8
		c0,15.2-0.2,30.4,0.1,45.6C193.8,149,190,158.7,183.6,167.6z"/>
</g>
</svg>
